<?xml version="1.0" encoding="UTF-8"?>
<svg version="1.1" xmlns="http://www.w3.org/2000/svg" width="606" height="606">
<path d="M0 0 C1.15260378 -0.00664781 2.30520756 -0.01329562 3.49273872 -0.02014488 C6.67868325 -0.03638588 9.86450132 -0.04372966 13.05048084 -0.04713166 C16.49158825 -0.05290879 19.93264321 -0.07003596 23.37371826 -0.08547974 C31.67344556 -0.1201552 39.9731682 -0.13580498 48.27295208 -0.14960304 C52.18410744 -0.15657241 56.09525754 -0.16572715 60.00640869 -0.17471123 C73.00974727 -0.20389862 86.01308074 -0.22869707 99.01644897 -0.23933506 C100.26348836 -0.2403711 100.26348836 -0.2403711 101.53572047 -0.24142807 C102.36903088 -0.24212009 103.2023413 -0.2428121 104.06090355 -0.24352509 C105.74942399 -0.24493707 107.43794442 -0.24635788 109.12646484 -0.24778748 C110.38280287 -0.24884523 110.38280287 -0.24884523 111.66452146 -0.24992435 C125.24565099 -0.26218335 138.82650192 -0.30500366 152.40751576 -0.36072768 C166.35778234 -0.41750163 180.30790794 -0.44798441 194.25829124 -0.45234722 C202.08839664 -0.45542895 209.91811428 -0.46992654 217.74810791 -0.51362801 C224.41269862 -0.5507217 231.07679644 -0.56391448 237.74147558 -0.54592312 C241.14116821 -0.53746834 244.53985422 -0.54031209 247.93941498 -0.57374191 C251.62681233 -0.60403797 255.31163481 -0.59127564 258.99902344 -0.56762695 C260.07110613 -0.5866526 261.14318882 -0.60567825 262.24775887 -0.62528044 C267.58311119 -0.54368136 270.68442559 -0.15957716 274.57229614 3.66992283 C275.57709381 4.8517156 276.55608667 6.0562715 277.49951172 7.28761292 C278.65580078 8.64306213 278.65580078 8.64306213 279.83544922 10.02589417 C280.50833984 10.87538635 281.18123047 11.72487854 281.87451172 12.60011292 C284.82169666 16.26161557 287.83118983 19.81570618 290.99951172 23.28761292 C294.91842424 27.58753082 298.59122041 32.04680838 302.24951172 36.56886292 C304.43452741 39.20909021 306.69122563 41.75491012 308.99951172 44.28761292 C312.02233593 47.60750778 314.92463333 50.98525403 317.74951172 54.47511292 C321.91100544 59.61535516 326.21795959 64.61265419 330.56103516 69.59889221 C334.07370792 73.63458786 337.55352237 77.69486897 340.99951172 81.78761292 C346.54884372 88.37238878 352.18845578 94.87706781 357.83789062 101.37599182 C366.26574417 111.07186212 374.66392625 120.79217919 383.015625 130.5537262 C385.00831718 132.88214013 387.00287034 135.20895581 388.99755859 137.53565979 C390.49712182 139.28482521 391.99636381 141.03426562 393.49560547 142.78370667 C395.50750174 145.13102817 397.5206393 147.47727709 399.53466797 149.82276917 C402.02740945 152.72602324 404.51595227 155.63283863 407.00292969 158.54103088 C408.54104542 160.33608471 410.08466882 162.12630929 411.62841797 163.91651917 C412.62731529 165.08171283 413.62602051 166.24707122 414.62451172 167.41261292 C415.08607666 167.94507629 415.5476416 168.47753967 416.02319336 169.02613831 C420.04079606 173.73364002 421.74858314 176.69443785 421.75398731 182.9256649 C421.75981951 184.08148264 421.7656517 185.23730038 421.77166063 186.42814291 C421.7678813 187.6987367 421.76410198 188.96933049 421.76020813 190.27842712 C421.76322807 191.6413375 421.76711675 193.00424618 421.7718007 194.36715186 C421.78211095 198.11643747 421.77989114 201.86562779 421.7756201 205.61492133 C421.77315815 209.65743025 421.78216077 213.69991592 421.78965759 217.74241638 C421.80242441 225.66612922 421.80419557 233.5898082 421.80185733 241.51352958 C421.80007513 247.95782651 421.80182173 254.40211315 421.80608177 260.84640884 C421.80667696 261.7632447 421.80727215 262.68008055 421.80788537 263.6246993 C421.80909713 265.48729693 421.81031127 267.34989456 421.81152775 269.21249218 C421.82241229 286.69393008 421.82023731 304.17534872 421.81414291 321.65678771 C421.80898091 337.63235329 421.82020859 353.60785776 421.83924112 369.58341126 C421.85864116 385.99365136 421.86687122 402.40386258 421.86311787 418.81411421 C421.86120809 428.02429883 421.86367102 437.23443153 421.87783241 446.44460678 C421.88977528 454.29143776 421.89111914 462.13818492 421.87904225 469.98501711 C421.87317201 473.98471006 421.87200211 477.98424993 421.88404465 481.9839325 C421.89496737 485.65460843 421.8917251 489.32500469 421.87778296 492.99566789 C421.87391951 494.9336673 421.88463123 496.87167943 421.89607984 498.80964887 C421.79331843 515.66283492 417.84780334 530.64902718 405.97998047 543.03370667 C398.77849112 549.57742219 389.17354933 555.45761949 379.29638672 556.52589417 C377.20445272 557.16288934 377.20445272 557.16288934 376.47998047 559.80714417 C376.21830078 560.89382385 375.95662109 561.98050354 375.68701172 563.10011292 C371.66300035 577.41993461 364.00863753 586.57686691 351.83154297 594.61183167 C341.45260535 599.8317194 331.77807156 600.86754438 320.33802795 600.79554749 C318.72825843 600.80016433 317.11849314 600.80652248 315.50873655 600.81445646 C311.11421659 600.83106564 306.72004666 600.82294197 302.32552588 600.81051159 C297.57490908 600.80142869 292.82435076 600.81544689 288.07374573 600.82643127 C278.77847746 600.844187 269.48333863 600.84038953 260.18806536 600.82878071 C252.63076711 600.81973451 245.07350504 600.81852752 237.51620293 600.82287598 C235.90068552 600.82379537 235.90068552 600.82379537 234.25253139 600.82473335 C232.06435429 600.82601229 229.87617721 600.82730915 227.68800014 600.82862371 C207.18494139 600.84002102 186.68195426 600.8269294 166.17890727 600.80542225 C148.60157614 600.7875546 131.0243507 600.7906543 113.44702148 600.80909729 C93.01715352 600.83052338 72.58734828 600.83891979 52.15747064 600.82664824 C49.97719253 600.82537409 47.79691441 600.82411661 45.61663628 600.82287598 C44.54400238 600.82225887 43.47136849 600.82164177 42.36623054 600.82100597 C34.82201473 600.8175581 27.27783885 600.82336932 19.73362923 600.83279419 C10.53391971 600.84403498 1.33434665 600.84093052 -7.86534732 600.81967121 C-12.55560971 600.80918841 -17.24564495 600.80499152 -21.93590546 600.81826782 C-26.23603136 600.83025532 -30.53572121 600.82352532 -34.83580799 600.80235761 C-36.38479117 600.79791829 -37.93381178 600.80009717 -39.48277055 600.80986077 C-56.03000907 600.90609824 -69.55420724 596.96772014 -81.81298828 585.47511292 C-92.93334921 573.64978023 -96.66809524 559.3903644 -96.63191605 543.56374359 C-96.63396868 542.71778789 -96.63602131 541.87183218 -96.63813615 541.00024146 C-96.6437826 538.1706021 -96.64235183 535.34101178 -96.64093018 532.5113678 C-96.64351513 530.46013855 -96.64652866 528.4089098 -96.64993358 526.35768175 C-96.65799095 520.72461675 -96.65979244 515.0915645 -96.66053104 509.45849442 C-96.66238371 503.3820755 -96.66993194 497.30566316 -96.67666626 491.22924805 C-96.6909468 477.25424769 -96.696774 463.27925045 -96.7013582 449.30424463 C-96.7036958 442.39735199 -96.70729855 435.49046018 -96.71105358 428.58356818 C-96.72388473 404.93664623 -96.73460604 381.28972474 -96.73805618 357.64279938 C-96.73827781 356.15935561 -96.7384996 354.67591184 -96.73872153 353.19246808 C-96.73894217 351.7054775 -96.73916266 350.21848692 -96.73938298 348.73149633 C-96.73982553 345.7484115 -96.74027265 342.76532666 -96.74072266 339.78224182 C-96.74083205 339.04261417 -96.74094144 338.30298651 -96.74105414 337.5409459 C-96.74468682 313.54491532 -96.76061703 289.54891492 -96.78391302 265.55289591 C-96.80850388 240.17670791 -96.8222286 214.80053717 -96.8234241 189.42433691 C-96.82359555 186.63941796 -96.82381098 183.85449902 -96.82405853 181.06958008 C-96.8241143 180.38386568 -96.82417007 179.69815127 -96.82422753 178.99165765 C-96.82537837 167.95468453 -96.83640273 156.91774239 -96.85094559 145.88077973 C-96.86530491 134.79155638 -96.86829796 123.70236442 -96.86050561 112.61313212 C-96.85659169 106.60510587 -96.85756506 100.59718395 -96.87156296 94.58917046 C-96.88425666 89.09078658 -96.88314428 83.59258592 -96.87097225 78.09420246 C-96.86900743 76.10373194 -96.87212969 74.11324865 -96.88081661 72.12279612 C-96.89187181 69.41880177 -96.88444699 66.71545837 -96.87242508 64.01148224 C-96.88002027 63.23742544 -96.88761547 62.46336865 -96.89544082 61.66585559 C-96.82397562 54.22802179 -94.80397044 47.74707984 -89.50048828 42.28761292 C-84.29306786 38.64241862 -80.04278152 38.16391139 -73.76611328 37.97120667 C-72.47060547 37.92931213 -71.17509766 37.8874176 -69.84033203 37.84425354 C-68.47705352 37.8044462 -67.11377223 37.76473386 -65.75048828 37.72511292 C-64.37156953 37.68189017 -62.99266303 37.63827471 -61.61376953 37.59425354 C-58.24277638 37.48817334 -54.87171002 37.38611441 -51.50048828 37.28761292 C-51.25451904 36.6309967 -51.0085498 35.97438049 -50.75512695 35.29786682 C-45.07463695 20.55161268 -35.69004956 10.40124833 -21.49267578 3.51417542 C-14.11913646 0.49160186 -7.92509165 -0.0077681 0 0 Z M-28.52001953 29.74073792 C-31.4587654 33.67919807 -31.4587654 33.67919807 -32.50048828 38.28761292 C-31.31735046 38.28907948 -30.13421265 38.29054604 -28.91522217 38.29205704 C-0.81838677 38.32777311 27.27835314 38.38403462 55.37509352 38.46553387 C58.83469734 38.4755511 62.29430163 38.48539527 65.75390625 38.49513245 C66.44263978 38.49707382 67.13137331 38.49901519 67.84097755 38.50101539 C78.9870931 38.53202104 90.13318806 38.54901203 101.2793386 38.56080714 C112.71968783 38.57322616 124.15990452 38.60104114 135.60019112 38.64222598 C142.02463527 38.66486701 148.44892549 38.680522 154.87341309 38.67949677 C160.92105725 38.67875173 166.96836078 38.69664007 173.01591682 38.72878075 C175.23464467 38.73729521 177.45341065 38.73901922 179.67214775 38.7334156 C182.70443711 38.72677775 185.73564206 38.74469215 188.76782227 38.76863098 C190.08108175 38.75699036 190.08108175 38.75699036 191.42087173 38.74511456 C198.44482615 38.84310147 203.90574953 40.62559383 208.87451172 45.72511292 C211.52776439 49.90908828 212.74766488 53.39306111 212.76693726 58.35275269 C212.77973221 59.84764725 212.77973221 59.84764725 212.79278564 61.3727417 C212.79142609 62.99603142 212.79142609 62.99603142 212.79003906 64.65211487 C212.79675629 65.80066956 212.80347351 66.94922424 212.81039429 68.13258362 C212.82939563 71.93039779 212.83329966 75.72803542 212.83544922 79.52589417 C212.84187582 82.16759311 212.84860408 84.80929133 212.85562134 87.45098877 C212.86840233 92.98988493 212.87138729 98.5287333 212.87011719 104.06764221 C212.86891659 110.45644338 212.89000511 116.84490628 212.92160451 123.2336219 C212.95097985 129.39365588 212.95809134 135.55352842 212.95689774 141.71362877 C212.95925582 144.32786121 212.96809093 146.94209623 212.98356247 149.55628395 C213.00319352 153.21611583 212.99739452 156.87508104 212.98535156 160.53492737 C212.99659058 161.61104782 213.00782959 162.68716827 213.01940918 163.79589844 C212.96652417 170.13187825 212.19772966 175.02329907 208.49951172 180.28761292 C204.57156524 184.01916207 200.83111459 186.53175491 195.33723831 186.54932594 C194.51067616 186.55679144 193.684114 186.56425693 192.83250451 186.57194865 C191.92978303 186.57001391 191.02706154 186.56807918 190.09698486 186.56608582 C189.13393236 186.57187822 188.17087986 186.57767062 187.17864394 186.58363855 C183.9434438 186.60067816 180.70838597 186.60351848 177.47314453 186.60646057 C175.15730945 186.615756 172.84147774 186.62592409 170.52565002 186.63690186 C164.23064025 186.66425925 157.93565292 186.67936829 151.64059925 186.69232988 C145.06487762 186.70793532 138.48920201 186.73473376 131.91351318 186.76036072 C120.87399813 186.80220002 109.83447697 186.83645105 98.79492188 186.86573792 C87.42413527 186.89592245 76.05337383 186.93027227 64.68261719 186.9702301 C63.63127759 186.97392243 63.63127759 186.97392243 62.5586988 186.97768934 C59.04252435 186.99006392 55.5263502 187.00252046 52.01017618 187.01501775 C22.83999093 187.11858922 -6.33022898 187.20764386 -35.50048828 187.28761292 C-35.59207676 228.50342993 -35.66254375 269.71923366 -35.7047496 310.93513213 C-35.70975233 315.80287004 -35.71492963 320.67060774 -35.72021484 325.53834534 C-35.72126409 326.50740972 -35.72231333 327.47647411 -35.72339436 328.47490408 C-35.74079175 344.1585305 -35.77232578 359.84209817 -35.80909947 375.52568976 C-35.84652741 391.62276585 -35.86872806 407.71981122 -35.87684226 423.81692904 C-35.88232618 433.74687511 -35.8996364 443.67665512 -35.93215415 453.60655006 C-35.95332491 460.41914506 -35.95968253 467.23165442 -35.95449379 474.04427991 C-35.95193599 477.97274841 -35.95581117 481.90092705 -35.97731018 485.8293438 C-35.99687957 489.43161249 -35.99769181 493.0333984 -35.98408386 496.63569006 C-35.98161283 498.54430836 -35.99877155 500.45292159 -36.01681352 502.36145622 C-35.93489466 514.23143006 -33.02557607 522.65205838 -24.72705078 531.19386292 C-15.03433788 540.30841399 -4.64515981 540.72997005 8.04794312 540.67529297 C9.62767338 540.6794698 11.20740064 540.68494923 12.78712237 540.69161278 C17.11241442 540.70604038 21.43751548 540.70183108 25.76281786 540.69444597 C30.43368845 540.68970994 35.10451799 540.70222801 39.77537537 540.71246338 C48.91996448 540.72964828 58.06448486 540.73049201 67.20908593 540.72525048 C74.64299496 540.7212069 82.07688371 540.72265456 89.51079178 540.72799873 C90.56935977 540.72874716 91.62792777 540.72949558 92.71857358 540.73026668 C94.86914773 540.73179818 97.01972188 540.73333653 99.17029603 540.73488165 C119.33228786 540.74860562 139.49424089 540.74316976 159.65623184 540.73169643 C178.09403377 540.72176458 196.53173535 540.73470411 214.96952181 540.75863063 C233.91000814 540.78302396 252.85044774 540.79262889 271.79094946 540.7859779 C282.42117266 540.78248615 293.05131869 540.78471483 303.68153 540.80222893 C312.73094649 540.81695382 321.78023146 540.81758256 330.82964538 540.80015802 C335.44471031 540.79164798 340.05954032 540.78949859 344.67459297 540.80480957 C348.90379635 540.8186665 353.13256375 540.8138807 357.36174197 540.79457033 C358.88722932 540.79081309 360.41275167 540.79372436 361.93820779 540.80418199 C373.96896605 540.88075778 384.08457763 539.2380017 393.49951172 531.28761292 C393.49951172 530.62761292 393.49951172 529.96761292 393.49951172 529.28761292 C394.15951172 529.28761292 394.81951172 529.28761292 395.49951172 529.28761292 C397.02945685 527.21157199 397.02945685 527.21157199 398.49951172 524.60011292 C399.01513672 523.72999573 399.53076172 522.85987854 400.06201172 521.96339417 C403.47848218 515.60393149 404.6253721 509.7418974 404.62255955 502.53614998 C404.6245506 501.40603371 404.62654164 500.27591744 404.62859303 499.11155522 C404.62422377 497.26427919 404.62422377 497.26427919 404.61976624 495.37968445 C404.62062066 494.06373759 404.62147509 492.74779073 404.6223554 491.3919667 C404.62458904 487.74560657 404.62059454 484.09927587 404.61557734 480.45291948 C404.6112568 476.51842787 404.6127204 472.5839379 404.61347961 468.64944458 C404.61400383 461.8347395 404.61086769 455.02004401 404.60524178 448.20534134 C404.59711295 438.35243893 404.59451013 428.49954115 404.59325378 418.64663576 C404.59106544 402.66074791 404.58441125 386.67486517 404.57495117 370.6889801 C404.56577143 355.16066005 404.55869334 339.63234138 404.55444336 324.10401917 C404.55418064 323.14676993 404.55391791 322.18952069 404.55364723 321.20326389 C404.55234219 316.40100084 404.55107848 311.59873777 404.54983532 306.7964747 C404.53946949 266.96018386 404.52185708 227.12389873 404.49951172 187.28761292 C402.58843376 187.28214447 402.58843376 187.28214447 400.63874817 187.27656555 C388.5901239 187.23950987 376.54175272 187.18162192 364.49332142 187.10371017 C358.30014347 187.06432114 352.1071059 187.03209056 345.91381836 187.01661682 C339.9289742 187.00139388 333.94451616 186.96684818 327.95984459 186.91930389 C325.68472348 186.90454816 323.40954723 186.89657526 321.13437843 186.89572906 C303.7025783 186.88273369 288.45403957 185.99730805 274.74951172 173.85011292 C274.00701172 173.00448792 273.26451172 172.15886292 272.49951172 171.28761292 C272.01998047 170.78745667 271.54044922 170.28730042 271.04638672 169.77198792 C260.59533192 158.47640344 258.04826359 144.28769878 258.06713867 129.35890198 C258.05694702 128.12819977 258.04675537 126.89749756 258.03625488 125.62950134 C258.01145641 122.2954792 257.99944007 118.96189565 257.99340081 115.62782001 C257.98394153 112.12842528 257.95773287 108.62915422 257.93339539 105.12983704 C257.88993248 98.52164204 257.86126206 91.91347131 257.838072 85.30517745 C257.81091113 77.77413612 257.76700695 70.24322045 257.72178328 62.71226931 C257.62922693 47.23744871 257.55741434 31.76260437 257.49951172 16.28761292 C224.45392773 16.21888285 191.40836234 16.1660517 158.36272313 16.13441693 C154.45763561 16.130665 150.55254824 16.12678201 146.64746094 16.12281799 C145.87005821 16.12203106 145.09265548 16.12124413 144.29169509 16.12043335 C131.71915272 16.10739449 119.14665167 16.08374905 106.57413378 16.05615453 C93.66481675 16.02805799 80.75552131 16.01142769 67.84617496 16.00534743 C59.88626545 16.00123978 51.92647278 15.98828602 43.96659926 15.96386351 C37.85357107 15.94606775 31.74063119 15.94425799 25.62758064 15.94828987 C23.12669978 15.94746662 20.62581436 15.94152707 18.12495995 15.92999649 C14.70019163 15.91498466 11.27591591 15.91869122 7.85113525 15.92684937 C6.38026014 15.91374158 6.38026014 15.91374158 4.87967038 15.90036899 C-8.26974958 15.98454739 -19.91289075 19.28565692 -28.52001953 29.74073792 Z M274.49951172 32.28761292 C274.42924806 46.32670337 274.37663871 60.36576632 274.3440752 74.40499687 C274.32844352 80.92452483 274.30725062 87.44393436 274.27319336 93.96339417 C274.24051123 100.25927514 274.22263992 106.55504245 274.21487999 112.85100174 C274.2093524 115.2486716 274.19855844 117.6463355 274.18232155 120.04395676 C274.16043 123.41160604 274.15754974 126.77879023 274.15893555 130.14649963 C274.14814972 131.12977737 274.13736389 132.11305511 274.12625122 133.12612915 C274.17751661 144.69802322 277.3797864 152.85203081 285.31591797 161.19776917 C294.42382643 169.86408207 305.03372513 171.45723683 317.1887207 171.40113831 C318.02854996 171.40128433 318.86837921 171.40143036 319.73365784 171.40158081 C322.48766738 171.40088856 325.24160785 171.39312855 327.99560547 171.38526917 C329.91374169 171.38340254 331.83187839 171.38197979 333.75001526 171.38098145 C338.78218925 171.37717551 343.81433407 171.36736174 348.84649658 171.35627747 C353.98799241 171.34602189 359.12949297 171.34147496 364.27099609 171.33644104 C374.34718074 171.32573766 384.4233438 171.30868447 394.49951172 171.28761292 C393.55693781 170.01593905 392.61227396 168.74581412 391.66674805 167.47633362 C391.14091629 166.7688649 390.61508453 166.06139618 390.07331848 165.33248901 C387.92715268 162.54393627 385.60357671 160.03488176 383.18701172 157.47511292 C378.80720366 152.78491301 374.7051532 147.93625661 370.67919922 142.93605042 C368.52193773 140.31486173 366.28640171 137.79607011 363.99951172 135.28761292 C360.0805992 130.98769501 356.40780303 126.52841745 352.74951172 122.00636292 C350.56449603 119.36613562 348.30779781 116.82031571 345.99951172 114.28761292 C342.0805992 109.98769501 338.40780303 105.52841745 334.74951172 101.00636292 C332.56449603 98.36613562 330.30779781 95.82031571 327.99951172 93.28761292 C324.0805992 88.98769501 320.40780303 84.52841745 316.74951172 80.00636292 C314.56449603 77.36613562 312.30779781 74.82031571 309.99951172 72.28761292 C306.0805992 67.98769501 302.40780303 63.52841745 298.74951172 59.00636292 C295.86293952 55.51842151 292.82219041 52.1880931 289.76904297 48.84620667 C286.55315203 45.2207186 283.54595584 41.43748298 280.54248047 37.63526917 C278.65396744 35.46510409 276.81608216 33.96198375 274.49951172 32.28761292 Z M-78.50048828 55.28761292 C-79.68335494 57.65334624 -79.63127202 59.08288087 -79.64093018 61.72192383 C-79.64664032 62.65430878 -79.65235046 63.58669373 -79.65823364 64.54733276 C-79.6593515 65.57336105 -79.66046936 66.59938934 -79.66162109 67.6565094 C-79.666586 68.73462891 -79.6715509 69.81274841 -79.67666626 70.92353821 C-79.69131183 74.5019341 -79.69809331 78.08028569 -79.70361328 81.65870667 C-79.70936204 84.13730878 -79.7151198 86.61591087 -79.72088623 89.09451294 C-79.73140255 94.29568184 -79.73724133 99.49683526 -79.74072266 104.69801331 C-79.74449204 110.04768495 -79.75859462 115.3972192 -79.78173828 120.74684143 C-79.80920491 127.19413845 -79.82212704 133.64130154 -79.82405853 140.08865547 C-79.82709342 142.55071692 -79.83514987 145.01277733 -79.84824371 147.47480583 C-79.86522677 150.91313711 -79.86344296 154.35096614 -79.85693359 157.7893219 C-79.86614838 158.81332596 -79.87536316 159.83733002 -79.88485718 160.8923645 C-79.87928802 161.82756927 -79.87371887 162.76277405 -79.86798096 163.72631836 C-79.86944752 164.53950751 -79.87091408 165.35269667 -79.87242508 166.19052792 C-79.39687353 168.87182224 -78.62169904 169.61221087 -76.50048828 171.28761292 C-74.34927413 171.73507528 -74.34927413 171.73507528 -71.92303467 171.66234303 C-70.50607489 171.67315284 -70.50607489 171.67315284 -69.06048965 171.68418103 C-68.0207185 171.67680675 -66.98094734 171.66943246 -65.90966797 171.66183472 C-64.80666225 171.66580912 -63.70365654 171.66978353 -62.56722641 171.67387837 C-58.85214294 171.68354247 -55.13743638 171.67165815 -51.42236328 171.65992737 C-48.76671314 171.66235398 -46.11108836 171.66595527 -43.45544434 171.67098999 C-36.97973083 171.68048956 -30.50412857 171.67386806 -24.02842331 171.66172705 C-16.49158705 171.64812173 -8.95477745 171.64974361 -1.41793203 171.65186038 C12.02722835 171.65505196 25.47233579 171.6433729 38.91748047 171.62379456 C51.97218437 171.60478968 65.02682622 171.5977068 78.08154297 171.60328674 C92.28782495 171.60934092 106.49407963 171.60917411 120.70035934 171.59780091 C122.21442413 171.59659359 123.72848892 171.5953876 125.24255371 171.59418297 C125.98755638 171.59357943 126.73255906 171.59297589 127.50013757 171.59235406 C132.75713423 171.58847037 138.01412075 171.58887028 143.27111816 171.59076881 C149.6752323 171.59288825 156.07929202 171.58768585 162.48339081 171.57315526 C165.75259249 171.56589838 169.02169839 171.56291145 172.29090881 171.56639862 C175.8302586 171.56960216 179.3693665 171.56058474 182.90869141 171.54830933 C184.46834814 171.55397831 184.46834814 171.55397831 186.05951309 171.55976182 C187.00415295 171.55392963 187.9487928 171.54809744 188.92205811 171.54208851 C190.14820391 171.54078834 190.14820391 171.54078834 191.39912033 171.53946191 C193.80280482 171.41164317 193.80280482 171.41164317 196.49951172 169.28761292 C196.94840932 167.20765665 196.94840932 167.20765665 196.86700439 164.76391602 C196.87535812 163.33576065 196.87535812 163.33576065 196.88388062 161.87875366 C196.87466583 160.83088181 196.86545105 159.78300995 196.85595703 158.7033844 C196.85902359 157.05212555 196.85902359 157.05212555 196.8621521 155.36750793 C196.86516992 151.7144074 196.84665378 148.06175384 196.82763672 144.40870667 C196.82458098 141.88047396 196.82270345 139.35223957 196.82196045 136.82400513 C196.8173512 131.5202192 196.80328893 126.21658753 196.78076172 120.91285706 C196.7518728 114.09729865 196.74153752 107.28184432 196.73707962 100.46623135 C196.7335317 95.24453699 196.72312156 90.02286141 196.71120453 84.80117989 C196.70548744 82.28723917 196.70073354 79.77329608 196.69693756 77.25935173 C196.69010044 73.75367436 196.67648059 70.24809368 196.66064453 66.7424469 C196.65952667 65.69255081 196.65840881 64.64265472 196.65725708 63.5609436 C196.65154694 62.61165985 196.64583679 61.6623761 196.63995361 60.68432617 C196.63697895 59.85454474 196.63400429 59.02476332 196.63093948 58.169837 C196.70545594 56.2748455 196.70545594 56.2748455 195.49951172 55.28761292 C194.03472536 55.19090099 192.56527976 55.16389508 191.09730434 55.16456509 C190.14086291 55.16257404 189.18442147 55.16058299 188.19899696 55.15853161 C186.60418647 55.16290087 186.60418647 55.16290087 184.97715759 55.1673584 C183.29753594 55.16607676 183.29753594 55.16607676 181.58398253 55.16476923 C177.80052003 55.16311116 174.01710105 55.16864114 170.23364258 55.17408752 C167.53402172 55.17492491 164.83440175 55.17425587 162.13478088 55.17364502 C156.30654887 55.17311959 150.47832801 55.17626837 144.6500988 55.18188286 C136.22336353 55.18999529 127.79663368 55.19261281 119.36989493 55.19387085 C105.69947442 55.19606178 92.02905986 55.20272296 78.35864258 55.21217346 C65.07576528 55.22134653 51.79288959 55.22842788 38.51000977 55.23268127 C37.6918357 55.232944 36.87366164 55.23320672 36.03069442 55.23347741 C31.92632954 55.2347824 27.82196465 55.23604612 23.71759975 55.23728931 C-10.35510058 55.24766319 -44.4277937 55.2652826 -78.50048828 55.28761292 Z M-79.50048828 187.28761292 C-79.56893004 233.74362084 -79.62201937 280.1996221 -79.65368427 326.65567055 C-79.65743638 332.14056939 -79.66131935 337.62546813 -79.6652832 343.11036682 C-79.66607013 344.20230872 -79.66685707 345.29425063 -79.66766784 346.41928168 C-79.68072079 364.09849142 -79.70437404 381.7776719 -79.73194667 399.45686428 C-79.76000392 417.59812982 -79.77666522 435.73938003 -79.78275377 453.88066638 C-79.78686953 465.07427352 -79.7998677 476.26779793 -79.82423768 487.4613796 C-79.8400988 495.13784317 -79.84488778 502.81426397 -79.84099241 510.49074273 C-79.83907147 514.91927104 -79.84201073 519.34765479 -79.85810471 523.77615738 C-79.87274412 527.83411797 -79.87341452 531.89183727 -79.86318497 535.94980915 C-79.86192136 537.41431603 -79.86569263 538.8788382 -79.87513783 540.34331517 C-79.95698773 553.82289207 -77.97759058 564.15123923 -68.68408203 574.26417542 C-57.52736156 584.85742516 -44.01868175 584.43812329 -29.52114868 584.42132568 C-27.99106966 584.42319546 -26.46099112 584.42549682 -24.93091333 584.42819101 C-20.7383049 584.4342947 -16.54571645 584.4341771 -12.35310459 584.43299663 C-7.82676449 584.43279227 -3.30043075 584.43831476 1.22590637 584.4430542 C10.0888702 584.45135315 18.95182738 584.45410869 27.81479476 584.45466658 C35.01942046 584.45514204 42.22404397 584.45719827 49.42866898 584.4603672 C69.86097131 584.46917122 90.29326839 584.4737869 110.72557263 584.47303673 C112.37710998 584.47297679 112.37710998 584.47297679 114.06201172 584.47291565 C115.16438268 584.47287477 116.26675365 584.47283389 117.40252979 584.47279177 C135.27198698 584.47238523 153.1414231 584.48195742 171.0108742 584.49605402 C189.36483866 584.51041846 207.71879286 584.51732418 226.07276309 584.51646024 C236.3748664 584.51612832 246.67694762 584.51887311 256.97904587 584.52963829 C265.74923908 584.53874411 274.51940018 584.5409178 283.28959607 584.53412887 C287.76270158 584.53086427 292.23574549 584.53080487 296.70884514 584.53948212 C300.80715686 584.54735048 304.90535815 584.54591224 309.00366719 584.53719798 C310.48273532 584.53566376 311.9618117 584.53747623 313.44087009 584.54305806 C327.22817 584.5916257 337.53845341 582.99010457 349.24951172 575.53761292 C354.65709677 570.13002786 357.48874205 564.62009468 359.49951172 557.28761292 C358.72788722 557.28663611 357.95626272 557.2856593 357.16125566 557.28465289 C311.40829102 557.22635567 265.65537391 557.1525398 219.90246781 557.05862663 C214.40641431 557.04735874 208.91036056 557.03622024 203.41430664 557.02516174 C202.32016105 557.02295806 201.22601547 557.02075438 200.09871396 557.01848391 C182.39245446 556.98313074 164.68619501 556.95825543 146.97991333 556.9372659 C128.80583291 556.91548808 110.63179821 556.88241882 92.4577567 556.83891135 C81.24729505 556.81242881 70.03689036 556.79470841 58.82639899 556.78826687 C51.13446808 556.78300261 43.44260876 556.76675075 35.75071625 556.74194726 C31.3157623 556.72796788 26.88093643 556.7187481 22.44595909 556.72260475 C18.37855653 556.72603436 14.31142673 556.7155395 10.24407997 556.6943774 C8.77953395 556.68914255 7.31495934 556.68883949 5.85041384 556.69421729 C-9.72785726 556.74555429 -21.79825927 553.94600537 -34.68798828 545.10011292 C-44.58402392 535.20407728 -51.60105771 522.77521692 -51.63915348 508.56549358 C-51.64462792 507.41646799 -51.65010237 506.26744239 -51.6557427 505.08359784 C-51.65672081 503.82582195 -51.65769892 502.56804607 -51.65870667 501.27215576 C-51.66327413 499.91902928 -51.66827443 498.5659042 -51.67367023 497.21278077 C-51.68723969 493.49576595 -51.69466624 489.77876026 -51.70109689 486.06172717 C-51.70910607 482.05290509 -51.72280207 478.04410199 -51.73580933 474.03529358 C-51.75756472 467.09016706 -51.77571264 460.14503861 -51.79141426 453.19989586 C-51.81412141 443.15837051 -51.84226308 433.11686618 -51.87173354 423.07535867 C-51.91939907 406.78389606 -51.96266608 390.49242485 -52.00317383 374.20094299 C-52.04253403 358.37476431 -52.08396152 342.54859327 -52.12817383 326.72242737 C-52.1308981 325.74699343 -52.13362237 324.7715595 -52.1364292 323.76656695 C-52.15010876 318.87312873 -52.16382902 313.97969062 -52.17756951 309.08625257 C-52.29151797 268.48672175 -52.39806004 227.88717432 -52.50048828 187.28761292 C-61.41048828 187.28761292 -70.32048828 187.28761292 -79.50048828 187.28761292 Z " fill="#090909" transform="translate(139.50048828125,-0.2876129150390625)"/>
<path d="M0 0 C1.36182915 -0.00417847 2.72365481 -0.00965879 4.08547407 -0.01631981 C7.80842323 -0.03072586 11.5311501 -0.02654498 15.25411117 -0.019153 C19.27669765 -0.01441161 23.29923671 -0.02693971 27.32180786 -0.03717041 C35.19471125 -0.05434446 43.06753478 -0.05520136 50.94045203 -0.04995751 C57.34080847 -0.04591216 63.74114134 -0.04736369 70.14149666 -0.05270576 C71.05325923 -0.05345419 71.9650218 -0.05420261 72.90441354 -0.05497371 C74.75679243 -0.05650522 76.60917131 -0.05804357 78.46155018 -0.05958868 C95.82272125 -0.07330855 113.18384722 -0.06787952 130.54501725 -0.05640347 C146.41952324 -0.04647049 162.29391268 -0.05941377 178.1684007 -0.08333766 C194.47934503 -0.10773361 210.79023509 -0.11733538 227.1011973 -0.11068493 C236.25418491 -0.10719396 245.40708289 -0.10941678 254.56005669 -0.12693596 C262.35127655 -0.14166408 270.14234365 -0.14228535 277.93356054 -0.12486505 C281.9065054 -0.11635789 285.87917743 -0.11419839 289.852108 -0.1295166 C293.49346607 -0.14338229 297.13431806 -0.13857696 300.77564699 -0.11927737 C302.70741989 -0.1137526 304.63921868 -0.12777318 306.57094234 -0.14263147 C316.72983112 -0.05696781 325.07450581 2.12085452 332.63270569 9.1884613 C337.86748848 15.49934505 341.57142957 23.48228935 341.59114552 31.73787022 C341.59560336 32.60641622 341.6000612 33.47496223 341.60465413 34.36982781 C341.60437759 35.79436497 341.60437759 35.79436497 341.60409546 37.24768066 C341.60777215 38.26014168 341.61144884 39.27260269 341.61523694 40.31574434 C341.62627677 43.71871564 341.63011816 47.12165641 341.63392639 50.52464294 C341.64019086 52.96055702 341.64683765 55.39647013 341.65383911 57.8323822 C341.67306803 65.15007277 341.68366809 72.46776081 341.6925669 79.78546897 C341.69695317 83.23437522 341.70231915 86.68327994 341.70755577 90.13218498 C341.72456727 101.60244586 341.73906001 113.07270578 341.74630451 124.54297733 C341.74821431 127.51847396 341.75013465 130.49397057 341.75209045 133.46946716 C341.75257419 134.20898282 341.75305793 134.94849848 341.75355633 135.7104237 C341.76185129 147.68202636 341.78717949 159.65352894 341.81967113 171.62508792 C341.85278202 183.92545466 341.87075696 196.2257706 341.87394875 208.52618212 C341.87611026 215.42855979 341.88480595 222.33079155 341.91040993 229.23312569 C341.93445352 235.72970462 341.93791732 242.22609258 341.92764854 248.72270966 C341.92715344 251.10307373 341.93346615 253.48345077 341.94720459 255.86377525 C341.96495524 259.12242683 341.95780095 262.38014078 341.94467163 265.63879395 C341.9611255 267.03990853 341.9611255 267.03990853 341.97791177 268.46932846 C341.89485797 277.05259943 339.48503346 285.881944 334.13270569 292.7587738 C324.33288331 302.28447528 314.29263564 303.68750419 301.27497864 303.65510559 C299.92796457 303.65884511 298.58095266 303.66344783 297.23394418 303.66883624 C293.5426567 303.68104449 289.85146001 303.68080835 286.16015697 303.67844748 C282.17501482 303.67803877 278.18990157 303.68908374 274.20477295 303.69856262 C266.40079385 303.7151618 258.59684497 303.72067168 250.79284969 303.72178738 C244.44775918 303.72273839 238.10267861 303.72685136 231.75759125 303.73318863 C213.75929374 303.7507983 195.76102006 303.76002796 177.76271388 303.75852768 C176.79281411 303.75844777 175.82291433 303.75836786 174.82362366 303.75828552 C173.85253655 303.75820376 172.88144945 303.758122 171.88093546 303.75803776 C156.1460119 303.757225 140.41118409 303.77636086 124.67628822 303.80456226 C108.51117928 303.83330558 92.34611701 303.84710174 76.18098187 303.8453747 C67.10896844 303.84471129 58.03705539 303.85018226 48.965065 303.8717308 C41.24044061 303.88996169 33.5159621 303.89427432 25.79132548 303.88071196 C21.85269369 303.87419182 17.91434162 303.87403028 13.97573662 303.89141846 C10.36447765 303.907197 6.75371906 303.90423749 3.14247194 303.88685019 C1.22923046 303.88235024 -0.68402685 303.8974001 -2.59720731 303.91332948 C-13.47144311 303.82685877 -22.56166825 301.44234164 -30.53135681 293.80174255 C-38.23682706 284.55517825 -39.69432192 275.01611261 -39.68351746 263.43229675 C-39.68648858 262.43375553 -39.6894597 261.43521431 -39.69252086 260.40641427 C-39.70118802 257.06259591 -39.70271443 253.71881344 -39.70420837 250.37498474 C-39.70883792 247.97656172 -39.71386276 245.57813944 -39.71925354 243.17971802 C-39.73236563 236.66514813 -39.73885706 230.15058509 -39.7432642 223.63600445 C-39.74603108 219.5650717 -39.75026921 215.4941413 -39.75476837 211.42321014 C-39.76695684 200.14244613 -39.77725734 188.861684 -39.78064346 177.58091354 C-39.78086303 176.85957513 -39.7810826 176.13823672 -39.78130881 175.39503957 C-39.78152709 174.67202051 -39.78174537 173.94900145 -39.78197026 173.20407271 C-39.78241372 171.73907073 -39.78286028 170.27406875 -39.78330994 168.80906677 C-39.78353137 168.08238227 -39.7837528 167.35569776 -39.78398094 166.60699251 C-39.78792796 154.83532306 -39.80538092 143.06371554 -39.82866946 131.29207 C-39.85240995 119.19391654 -39.86484652 107.09579413 -39.86601138 94.99761701 C-39.86692657 88.20990704 -39.87263948 81.42227781 -39.89083099 74.63459015 C-39.90731696 68.24879705 -39.90946449 61.86315704 -39.90069199 55.47735023 C-39.89992193 53.13688306 -39.9042602 50.79640763 -39.91415024 48.45596123 C-39.92688419 45.25412532 -39.92098471 42.0528305 -39.91056824 38.85099792 C-39.91862464 37.93093673 -39.92668105 37.01087553 -39.93498158 36.06293368 C-39.87544666 28.20628599 -38.35620125 20.42899381 -33.98057556 13.76268005 C-33.5667865 13.11041443 -33.15299744 12.4581488 -32.72666931 11.78611755 C-32.33608337 11.32463318 -31.94549744 10.8631488 -31.54307556 10.38768005 C-30.88307556 10.38768005 -30.22307556 10.38768005 -29.54307556 10.38768005 C-29.54307556 9.72768005 -29.54307556 9.06768005 -29.54307556 8.38768005 C-20.43781326 0.83224963 -11.5905958 -0.05568452 0 0 Z M-17.69932556 21.10643005 C-18.14276306 21.69424255 -18.58620056 22.28205505 -19.04307556 22.88768005 C-19.50713806 23.47549255 -19.97120056 24.06330505 -20.44932556 24.66893005 C-22.32439839 27.61547307 -22.66874903 30.14896436 -22.67450333 33.54790878 C-22.67834447 34.39951356 -22.68218562 35.25111833 -22.68614316 36.12852931 C-22.68527668 37.06440733 -22.6844102 38.00028535 -22.68351746 38.96452332 C-22.68648858 39.95853441 -22.6894597 40.9525455 -22.69252086 41.97667813 C-22.70122475 45.32299709 -22.70271754 48.66928035 -22.70420837 52.01560974 C-22.70883536 54.40860572 -22.71385986 56.80160096 -22.71925354 59.19459534 C-22.73239126 65.70707585 -22.7388618 72.21954892 -22.7432642 78.73203945 C-22.74602674 82.79874489 -22.75026414 86.86544796 -22.75476837 90.93215179 C-22.76696157 102.19221218 -22.7772605 113.45227065 -22.78064346 124.71233749 C-22.78086303 125.43306834 -22.7810826 126.15379919 -22.78130881 126.89637037 C-22.78152709 127.61882516 -22.78174537 128.34127995 -22.78197026 129.08562732 C-22.78241373 130.54959281 -22.78286029 132.01355831 -22.78330994 133.4775238 C-22.78353137 134.20370113 -22.7837528 134.92987846 -22.78398094 135.67806116 C-22.78792815 147.44224826 -22.80537957 159.20637339 -22.82866946 170.97053656 C-22.85238921 183.04937036 -22.86484561 195.12817307 -22.86601138 207.20703053 C-22.86692784 213.98854144 -22.87267268 220.76997161 -22.89083099 227.55146027 C-22.90728531 233.93063814 -22.90947992 240.30966271 -22.90069199 246.68885422 C-22.89992019 249.03057897 -22.90428296 251.37231187 -22.91415024 253.71401596 C-22.92682958 256.91049479 -22.92101438 260.10642736 -22.91056824 263.30290222 C-22.91862464 264.22985736 -22.92668105 265.15681249 -22.93498158 266.11185718 C-22.88834732 272.21221502 -22.20230308 277.36982898 -18.00791931 282.12986755 C-13.66089477 285.3540034 -11.61051449 286.5121286 -6.23809433 286.52190113 C-5.10570886 286.52635897 -3.9733234 286.53081682 -2.80662322 286.53540975 C-1.55198343 286.53522539 -0.29734363 286.53504102 0.99531555 286.53485107 C2.33332671 286.5381489 3.67133688 286.5418743 5.00934577 286.54599255 C8.69875638 286.55602994 12.38815073 286.55973213 16.07757306 286.56238186 C20.05179365 286.56627978 24.02600128 286.57585847 28.00021362 286.58459473 C37.60423484 286.60437374 47.20825715 286.6144272 56.81229365 286.62332252 C61.33226314 286.62770309 65.85223145 286.6330705 70.37220001 286.63831139 C85.39297365 286.65532515 100.41374655 286.66982003 115.43452835 286.67706013 C119.33408357 286.6789701 123.23363878 286.68089042 127.13319397 286.68284607 C128.58706137 286.68357168 128.58706137 286.68357168 130.07029983 286.68431195 C145.77658176 286.69261484 161.48278759 286.71795546 177.18903628 286.75042675 C193.30536697 286.78347486 209.42165895 286.80150685 225.53802371 286.80470437 C234.59039702 286.80687156 243.64265936 286.8156507 252.69499969 286.84116554 C260.40341166 286.86284188 268.11168573 286.87093813 275.82012472 286.86119876 C279.75405739 286.8566451 283.68770533 286.85860176 287.6215992 286.87796021 C291.22291932 286.89552923 294.8237457 286.89464572 298.42507061 286.87906291 C300.34523537 286.87554693 302.26540494 286.89175987 304.18549848 286.90866739 C310.56372759 286.86077614 314.65804269 286.77559248 319.45692444 282.38768005 C323.02687801 278.43178555 324.5793866 275.53058714 324.5883522 270.20904064 C324.59219335 269.35333577 324.59603449 268.4976309 324.59999204 267.61599559 C324.59869231 266.20531895 324.59869231 266.20531895 324.59736633 264.7661438 C324.60033746 263.76734359 324.60330858 262.76854338 324.60636973 261.7394765 C324.61507374 258.37700407 324.61656642 255.01456717 324.61805725 251.65208435 C324.6226842 249.24761376 324.62770869 246.84314392 324.63310242 244.43867493 C324.6462398 237.8952708 324.65271048 231.35187409 324.65711308 224.80846 C324.65987541 220.72300127 324.66411275 216.63754491 324.66861725 212.55208778 C324.68080989 201.24141304 324.69110925 189.93074019 324.69449234 178.62005901 C324.69471191 177.89610899 324.69493147 177.17215897 324.69515769 176.42627107 C324.69537597 175.70058587 324.69559425 174.97490067 324.69581914 174.22722501 C324.69626261 172.75670286 324.69670917 171.28618071 324.69715881 169.81565857 C324.69738024 169.08622832 324.69760167 168.35679807 324.69782981 167.60526387 C324.70177797 155.78543587 324.71923254 143.96566952 324.74251834 132.14586534 C324.76623063 120.01166578 324.77869413 107.87749715 324.77986026 95.74327403 C324.78077708 88.92993711 324.7865312 82.11668051 324.80467987 75.30336571 C324.82168841 68.89547894 324.82333437 62.48770401 324.81454086 56.07979965 C324.81376848 53.72636698 324.81813959 51.37292623 324.82799911 49.01951408 C324.84065969 45.80954861 324.83487357 42.60012854 324.82441711 39.39016724 C324.83247352 38.45640831 324.84052992 37.52264939 324.84883046 36.56059474 C324.79843875 29.95730408 323.4658153 25.84299111 319.20692444 20.63768005 C312.66179251 15.28257211 304.73435305 16.1016777 296.67912292 16.12698364 C295.3890895 16.1231581 294.09905607 16.11933255 292.76993072 16.11539108 C289.20019361 16.10512229 285.63055707 16.10729002 282.06081176 16.11157167 C278.2065916 16.11404093 274.35239552 16.10502223 270.4981842 16.09753418 C262.95154904 16.08479067 255.40494946 16.08299306 247.85830535 16.08533444 C241.7234383 16.08711817 235.58858204 16.08536678 229.45371628 16.08111 C228.58024906 16.08051481 227.70678185 16.07991962 226.80684593 16.0793064 C225.03233624 16.07809463 223.25782656 16.0768805 221.48331688 16.07566402 C204.84516375 16.0647898 188.20703089 16.0669504 171.56887661 16.07304887 C156.35317288 16.07821776 141.13753318 16.0669631 125.92184211 16.04795065 C110.29236947 16.02857112 94.66292711 16.02031646 79.03344238 16.0240739 C70.26109006 16.02598579 61.48879224 16.02349957 52.71644974 16.00935936 C45.24833436 15.99744313 37.78030702 15.99604338 30.31219043 16.00814953 C26.50346841 16.01403655 22.69490741 16.01514261 18.88619614 16.00314713 C14.75356769 15.99028295 10.62132212 16.00075694 6.48869324 16.01345825 C5.29014399 16.00608397 4.09159474 15.99870968 2.85672581 15.99111193 C-4.46793443 16.03848055 -11.76065555 16.37270758 -17.69932556 21.10643005 Z " fill="#0C0C0C" transform="translate(172.54307556152344,217.61231994628906)"/>
<path d="M0 0 C1.72348915 -0.00788544 1.72348915 -0.00788544 3.48179626 -0.01593018 C7.26339486 -0.02908696 11.04456931 -0.02040699 14.82617188 -0.01025391 C17.46358318 -0.01227587 20.10099393 -0.01518833 22.73840332 -0.01895142 C28.25940509 -0.02439654 33.78028613 -0.01725019 39.30126953 -0.00292969 C45.667937 0.01339454 52.03431617 0.00810514 58.40097666 -0.0084089 C64.54660748 -0.02370653 70.69211132 -0.02203237 76.8377533 -0.0132637 C79.44359884 -0.01126594 82.04945178 -0.01370605 84.6552887 -0.02070236 C88.30033715 -0.02834168 91.9448361 -0.01667691 95.58984375 0 C96.66125107 -0.00607269 97.73265839 -0.01214539 98.83653259 -0.0184021 C105.86951302 0.04105038 111.66806028 0.77861245 117.53710938 5.00146484 C118.0759375 5.56220703 118.61476563 6.12294922 119.16992188 6.70068359 C119.72421875 7.25369141 120.27851563 7.80669922 120.84960938 8.37646484 C124.1779266 13.00912261 124.5508043 17.8982393 124.58544922 23.45996094 C124.59216644 24.14049026 124.59888367 24.82101959 124.60580444 25.52217102 C124.62469326 27.75623008 124.62870385 29.98998731 124.63085938 32.22412109 C124.63729331 33.7882194 124.64402211 35.35231652 124.65103149 36.91641235 C124.66298121 40.18958322 124.66671467 43.46264872 124.66552734 46.73583984 C124.66532421 50.9142585 124.69263062 55.09199662 124.72707176 59.27025414 C124.74939191 62.49949196 124.75336334 65.72856726 124.75230789 68.9578743 C124.75465599 70.49754813 124.76343466 72.03722697 124.77897263 73.57682419 C124.93443331 90.57044387 124.93443331 90.57044387 118.84750366 96.89120483 C114.4559551 100.77190948 110.95456221 102.63407365 105.12225342 102.65560913 C103.55369347 102.66840408 103.55369347 102.66840408 101.95344543 102.68145752 C100.81155258 102.68055115 99.66965973 102.67964478 98.49316406 102.67871094 C96.68276894 102.68878677 96.68276894 102.68878677 94.83580017 102.69906616 C91.52767718 102.71481144 88.21980527 102.72142142 84.9116621 102.72269773 C82.84248724 102.72412062 80.77333858 102.7283929 78.70417023 102.73369217 C71.47838169 102.75219363 64.2526669 102.76036299 57.02685547 102.75878906 C50.30350817 102.75758889 43.58048254 102.77866618 36.8572166 102.81027639 C31.07615175 102.83648285 25.29519164 102.84715448 19.51406789 102.84587824 C16.06526077 102.84536972 12.61673932 102.85099121 9.16799164 102.87223434 C5.31662098 102.89530948 1.46568621 102.88606909 -2.38574219 102.87402344 C-3.51953812 102.88526245 -4.65333405 102.89650146 -5.82148743 102.90808105 C-13.486506 102.84724612 -18.87794487 101.64563188 -24.77328491 96.62783813 C-30.12747211 89.19462956 -29.54080537 81.10205731 -29.43164062 72.34912109 C-29.43060147 70.69723513 -29.43164443 69.04534667 -29.43466187 67.39346313 C-29.43448323 63.94536008 -29.41379002 60.49820014 -29.37744141 57.05029297 C-29.33199549 52.6441787 -29.33099942 48.23943525 -29.3444767 43.83315086 C-29.35117723 40.42715394 -29.33785849 37.02146624 -29.31821823 33.61552811 C-29.31055524 31.9913355 -29.3082007 30.3671084 -29.31138992 28.74290085 C-29.31213665 26.4695416 -29.28675192 24.19790361 -29.25439453 21.92480469 C-29.24517975 20.63512787 -29.23596497 19.34545105 -29.22647095 18.01669312 C-28.45762157 12.66606848 -26.31329936 8.99640483 -22.45507812 5.13818359 C-15.06327528 0.43430906 -8.55378708 -0.04848252 0 0 Z M-10.70507812 17.38818359 C-13.03328581 20.88049512 -12.95341143 22.2481311 -12.94799805 26.37255859 C-12.95107468 27.60393555 -12.95415131 28.8353125 -12.95732117 30.10400391 C-12.95042296 31.44873236 -12.94315596 32.79345897 -12.93554688 34.13818359 C-12.93435453 35.51676388 -12.93390203 36.895345 -12.93415833 38.27392578 C-12.93259455 41.16232392 -12.92431327 44.05059793 -12.91088867 46.93896484 C-12.893899 50.64128969 -12.89007442 54.34347814 -12.89083385 58.0458374 C-12.89056191 60.89226585 -12.88507682 63.73866448 -12.87783241 66.58508301 C-12.87465041 67.95023371 -12.87267943 69.31538778 -12.87193871 70.68054199 C-12.86977022 72.58830988 -12.86022595 74.49606508 -12.8503418 76.40380859 C-12.84653 77.48952148 -12.8427182 78.57523438 -12.83879089 79.69384766 C-12.8211331 82.48804584 -12.8211331 82.48804584 -11.70507812 85.38818359 C-8.83830252 86.34377546 -7.04994354 86.51586442 -4.07458496 86.52189636 C-3.12399704 86.52616135 -2.17340912 86.53042633 -1.1940155 86.53482056 C-0.15288101 86.53436737 0.88825348 86.53391418 1.9609375 86.53344727 C3.05871017 86.53680588 4.15648285 86.54016449 5.28752136 86.54362488 C8.92541629 86.55314364 12.56326526 86.55507833 16.20117188 86.55615234 C18.72318542 86.55936383 21.24519877 86.56272782 23.76721191 86.5662384 C29.05656441 86.57223167 34.34589968 86.5741208 39.63525391 86.57348633 C45.75135048 86.57288512 51.86735897 86.58344619 57.98343325 86.59922999 C63.86580434 86.6138704 69.74814844 86.61747473 75.63053894 86.6168766 C78.13445903 86.61805972 80.63837971 86.62249994 83.14228821 86.63020897 C86.6379028 86.6399649 90.13328827 86.63714838 93.62890625 86.63110352 C94.67004074 86.63672302 95.71117523 86.64234253 96.78385925 86.64813232 C97.73444717 86.64393784 98.6850351 86.63974335 99.66442871 86.63542175 C100.49106773 86.63596652 101.31770676 86.63651129 102.16939545 86.63707256 C104.59499789 86.51614319 104.59499789 86.51614319 107.29492188 84.38818359 C107.74208962 81.5262666 107.74208962 81.5262666 107.65136719 78.1184082 C107.65436829 76.80041733 107.65736938 75.48242645 107.66046143 74.12449646 C107.64845659 72.67983613 107.63597365 71.23517971 107.62304688 69.79052734 C107.61999027 68.31604708 107.6181134 66.84156393 107.61737061 65.36708069 C107.61276468 62.27593957 107.59832689 59.18505857 107.57617188 56.09399414 C107.54786444 52.12351988 107.53695832 48.15325048 107.53248978 44.1826849 C107.52834147 41.13816766 107.51852937 38.09369221 107.50661469 35.04919624 C107.50090134 33.5847056 107.49614617 32.1202109 107.49234772 30.65571404 C107.48550478 28.61330648 107.47097827 26.57092895 107.45605469 24.52856445 C107.44922668 23.36433456 107.44239868 22.20010468 107.43536377 21.00059509 C107.59058913 18.46114142 107.59058913 18.46114142 106.29492188 17.38818359 C104.78146213 17.2858998 103.26325618 17.25299293 101.74635315 17.2477417 C100.76341278 17.24203156 99.78047241 17.23632141 98.76774597 17.23043823 C97.13679741 17.22876144 97.13679741 17.22876144 95.47290039 17.22705078 C94.33479919 17.22208588 93.196698 17.21712097 92.02410889 17.21200562 C88.24067593 17.19734108 84.45728489 17.19057532 80.67382812 17.18505859 C78.05687966 17.17931126 75.43993121 17.17355348 72.82298279 17.16778564 C68.03237019 17.15820794 63.24176671 17.15231486 58.45114571 17.14928889 C51.39097827 17.14480541 44.33100417 17.12724631 37.27089554 17.0982883 C31.16426305 17.07410673 25.05771068 17.06634653 18.95103264 17.06461334 C16.34859095 17.06157571 13.74615029 17.05351018 11.1437397 17.04042816 C7.5111213 17.02346923 3.87897925 17.02522299 0.24633789 17.03173828 C-0.83893692 17.0225235 -1.92421173 17.01330872 -3.04237366 17.0038147 C-4.02813385 17.00938385 -5.01389404 17.014953 -6.02952576 17.02069092 C-6.88918159 17.01922436 -7.74883741 17.0177578 -8.63454342 17.0162468 C-9.6594581 17.20035551 -9.6594581 17.20035551 -10.70507812 17.38818359 Z " fill="#090909" transform="translate(335.705078125,381.61181640625)"/>
<path d="M0 0 C1.10537109 -0.00708984 2.21074219 -0.01417969 3.34960938 -0.02148438 C8.93386912 0.0223799 12.53043377 0.07323081 17.1875 3.4375 C18.32995141 6.06294123 18.38692571 8.59568359 18.1875 11.4375 C16.9375 14.375 16.9375 14.375 15.1875 16.4375 C12.19506695 17.43497768 10.13155414 17.57530911 7.00390625 17.61328125 C5.48893555 17.64905273 5.48893555 17.64905273 3.94335938 17.68554688 C1.81856236 17.72843269 -0.30650095 17.75972837 -2.43164062 17.77929688 C-3.94854492 17.82086914 -3.94854492 17.82086914 -5.49609375 17.86328125 C-6.41962646 17.87786377 -7.34315918 17.89244629 -8.29467773 17.9074707 C-11.53688948 18.58999196 -12.72768317 19.92024621 -14.8125 22.4375 C-17.05652237 26.92554474 -16.12238449 32.99644622 -16.16259766 37.9855957 C-16.17914188 39.48998501 -16.20641251 40.9942962 -16.24462891 42.49829102 C-16.29956208 44.67245041 -16.3212937 46.84477022 -16.3359375 49.01953125 C-16.35575684 50.32124268 -16.37557617 51.6229541 -16.39599609 52.96411133 C-15.65777507 57.35853416 -14.35379675 58.79998139 -10.8125 61.4375 C-8.31239932 62.16960891 -8.31239932 62.16960891 -5.6875 62.07421875 C-4.73359375 62.09419922 -3.7796875 62.11417969 -2.796875 62.13476562 C-1.81203125 62.13154297 -0.8271875 62.12832031 0.1875 62.125 C2.14591872 62.14166194 4.10428976 62.16614087 6.0625 62.19921875 C7.35800781 62.1986145 7.35800781 62.1986145 8.6796875 62.19799805 C11.51441556 62.4687212 13.63010015 63.19993269 16.1875 64.4375 C17.93003372 66.76087829 18.19578217 68.49310885 18.625 71.375 C18.16784335 74.57509655 17.46307785 76.16735428 15.10717773 78.38793945 C10.59103912 80.85708353 5.00069146 80.14302643 0 80.0625 C-1.18142578 80.08183594 -2.36285156 80.10117188 -3.58007812 80.12109375 C-12.35083909 80.07250228 -19.32056148 78.48479852 -25.95581055 72.50634766 C-34.48428955 63.86065864 -34.32001502 53.35422096 -34.25854492 41.87207031 C-34.25001755 39.44250143 -34.27889185 37.01527626 -34.31054688 34.5859375 C-34.34733922 26.57573934 -34.31993978 19.37440137 -29.8125 12.4375 C-29.03519531 11.20580078 -29.03519531 11.20580078 -28.2421875 9.94921875 C-20.54903078 0.9223238 -11.38564036 -0.20946875 0 0 Z " fill="#111111" transform="translate(205.8125,72.5625)"/>
<path d="M0 0 C1.34788101 -0.01496269 1.34788101 -0.01496269 2.72299194 -0.03022766 C3.70128464 -0.03089233 4.67957733 -0.03155701 5.68751526 -0.03224182 C6.72369995 -0.04056534 7.75988464 -0.04888885 8.82746887 -0.0574646 C12.25554653 -0.08157665 15.68343404 -0.09033758 19.11158752 -0.09693909 C21.49285948 -0.10590333 23.87413084 -0.11502514 26.25540161 -0.1242981 C31.24792348 -0.14079312 36.24037824 -0.14848936 41.23292542 -0.15138245 C47.63351366 -0.15677169 54.03347243 -0.19447277 60.43388271 -0.24012661 C65.3520743 -0.26984958 70.2701133 -0.27710495 75.18838692 -0.2781086 C77.54833426 -0.28231908 79.90828171 -0.29478629 82.26814079 -0.31562614 C85.5672597 -0.34244507 88.86490596 -0.33774284 92.16407776 -0.32521057 C93.14034622 -0.34004486 94.11661469 -0.35487915 95.12246704 -0.37016296 C99.71559271 -0.32041227 101.82559146 -0.22007911 105.60464478 2.58895874 C108.06584339 6.09337532 108.10131994 8.07472481 107.49049377 12.27415466 C105.73034247 15.45919036 104.99158461 16.10712438 101.49049377 17.27415466 C100.04245803 17.37081992 98.59044238 17.4132966 97.13920593 17.42132568 C96.25040741 17.42848099 95.36160889 17.43563629 94.44587708 17.44300842 C92.98707123 17.44704178 92.98707123 17.44704178 91.49879456 17.45115662 C89.95936691 17.46101341 89.95936691 17.46101341 88.38883972 17.47106934 C84.98782786 17.49080356 81.58686011 17.5024639 78.18580627 17.51243591 C77.02534664 17.51651144 75.86488701 17.52058697 74.66926193 17.524786 C68.52975899 17.54564506 62.3902784 17.55994876 56.25074768 17.56932068 C49.90292932 17.58039801 43.55546026 17.61481399 37.20776558 17.65449238 C32.33162269 17.68060477 27.45556381 17.68900764 22.57935715 17.69260216 C20.23895274 17.69748029 17.89855238 17.70912893 15.55821609 17.72764015 C12.28552062 17.75192146 9.01373955 17.75108664 5.74098206 17.74412537 C4.77249329 17.75693542 3.80400452 17.76974548 2.8061676 17.78294373 C-1.45901872 17.74983168 -3.86905216 17.6577086 -7.59156799 15.42837524 C-10.05579429 12.66056608 -10.43429539 10.95948564 -10.50950623 7.27415466 C-9.76706077 4.30437285 -9.33692859 2.790546 -6.70931911 1.15066433 C-4.30354268 0.19208903 -2.58188651 0.01541596 0 0 Z " fill="#111111" transform="translate(352.50950622558594,253.72584533691406)"/>
<path d="M0 0 C0.9169313 -0.00563965 1.83386261 -0.0112793 2.77857971 -0.01708984 C3.78231125 -0.01304138 4.78604279 -0.00899292 5.82019043 -0.00482178 C6.87894882 -0.00832642 7.93770721 -0.01183105 9.02854919 -0.01544189 C12.53663646 -0.02426156 16.0445229 -0.01840913 19.5526123 -0.01165771 C21.98494506 -0.01300429 24.41727755 -0.01494477 26.84960938 -0.01745605 C31.95066894 -0.02040764 37.05165852 -0.01610851 42.15270996 -0.0067749 C48.70016296 0.00461958 55.24745201 -0.0019397 61.79489899 -0.01391983 C66.81851442 -0.02113745 71.84209081 -0.01885094 76.8657074 -0.01366425 C79.28030924 -0.01232748 81.69491459 -0.01397639 84.10951233 -0.01862335 C87.48061552 -0.02368691 90.85145099 -0.01598054 94.22253418 -0.00482178 C95.22626572 -0.00887024 96.22999725 -0.0129187 97.2641449 -0.01708984 C98.1810762 -0.0114502 99.09800751 -0.00581055 100.04272461 0 C100.83986626 0.00075405 101.6370079 0.0015081 102.45830536 0.002285 C104.5213623 0.25396729 104.5213623 0.25396729 107.5213623 2.25396729 C108.17370605 4.24224854 108.17370605 4.24224854 108.4588623 6.56646729 C108.62708496 7.705354 108.62708496 7.705354 108.79870605 8.86724854 C108.37523581 12.51147843 107.24255774 13.78310858 104.5213623 16.25396729 C101.06621852 17.01703035 97.65101655 16.92635836 94.12487793 16.8850708 C93.0675798 16.8922261 92.01028168 16.89938141 90.92094421 16.90675354 C87.42272866 16.92367525 83.9257883 16.90421628 80.4276123 16.88287354 C77.99910374 16.8837019 75.57059522 16.88616008 73.14208984 16.8901825 C68.05105728 16.8930429 62.96046407 16.87831483 57.86950684 16.85089111 C51.33880342 16.81680868 44.80888586 16.82282467 38.27814484 16.84155369 C33.26301507 16.85211461 28.24806864 16.84319397 23.23295593 16.82816887 C20.82476852 16.82297997 18.41656201 16.8234774 16.00837708 16.82971382 C12.64444711 16.8351548 9.28164788 16.81482505 5.91784668 16.78741455 C4.41999886 16.79720337 4.41999886 16.79720337 2.89189148 16.80718994 C-3.84437041 16.71370217 -3.84437041 16.71370217 -7.07373047 14.37297058 C-8.73606064 11.86569961 -9.33179306 10.26428238 -9.4786377 7.25396729 C-7.9709316 1.85135377 -5.55813067 0.00525768 0 0 Z " fill="#030303" transform="translate(351.4786376953125,339.74603271484375)"/>
<path d="M0 0 C2.4375 1.5625 2.4375 1.5625 4 4 C4.32140064 9.54553501 3.7207082 13.94564804 2.13574219 19.3112793 C1.93734238 19.99382278 1.73894257 20.67636627 1.53453064 21.3795929 C0.88218864 23.61427773 0.21472177 25.84412352 -0.453125 28.07421875 C-0.91528562 29.64562977 -1.37651192 31.21731586 -1.83685303 32.78926086 C-3.04888092 36.91838949 -4.27391522 41.04354794 -5.50164795 45.16802979 C-6.73718444 49.32769952 -7.95964717 53.4912055 -9.18359375 57.65429688 C-13.66722603 72.88348695 -13.66722603 72.88348695 -15.84289551 80.11361694 C-16.60953401 82.66612073 -17.34119193 85.22135182 -18.05847168 87.78897095 C-18.38947876 88.94633759 -18.72048584 90.10370422 -19.06152344 91.29614258 C-19.34139099 92.30526199 -19.62125854 93.31438141 -19.90960693 94.3540802 C-21.14386585 97.34910118 -22.52880985 98.93223836 -25 101 C-27.74791413 101.72991469 -30.22011721 101.54686219 -33 101 C-35.5 99.5 -35.5 99.5 -37 97 C-37.35535779 91.18069671 -36.58604745 86.4141994 -34.9362793 80.85913086 C-34.71676605 80.08892105 -34.49725281 79.31871124 -34.27108765 78.52516174 C-33.54907711 76.00196827 -32.81198604 73.48347075 -32.07421875 70.96484375 C-31.56494173 69.19965739 -31.05647594 67.43423679 -30.54878235 65.66859436 C-29.48508953 61.97757649 -28.41439646 58.28869049 -27.33813477 54.60131836 C-25.96261637 49.88803133 -24.60039483 45.17103579 -23.24287701 40.45253658 C-22.1940106 36.80964592 -21.14025463 33.16818504 -20.08481789 29.52719307 C-19.58109832 27.78884247 -19.07837744 26.05020214 -18.5766964 24.31126213 C-17.87304508 21.87662921 -17.16335887 19.44383705 -16.4519043 17.01147461 C-16.24762314 16.30115082 -16.04334198 15.59082703 -15.83287048 14.85897827 C-12.5769317 3.80220766 -12.5769317 3.80220766 -9.25 0 C-5.82943875 -1.52024944 -3.5616438 -0.95401173 0 0 Z " fill="#111111" transform="translate(284,255)"/>
<path d="M0 0 C1.26188896 -0.01029488 1.26188896 -0.01029488 2.54927063 -0.02079773 C5.32273358 -0.03905968 8.09563061 -0.03522954 10.86914062 -0.02954102 C12.80057967 -0.03410273 14.73201709 -0.03940827 16.66345215 -0.04542542 C20.70848186 -0.05435504 24.75331412 -0.05193461 28.79833984 -0.04199219 C33.98035672 -0.03049581 39.16169285 -0.05072504 44.3436203 -0.07990932 C48.33107832 -0.09825906 52.31837278 -0.09798143 56.30586243 -0.0922718 C58.21642513 -0.09211848 60.12699884 -0.09817228 62.03752136 -0.11056328 C64.70904221 -0.12545039 67.37929979 -0.11481383 70.05078125 -0.09765625 C70.8384639 -0.10732422 71.62614655 -0.11699219 72.43769836 -0.12695312 C76.18374791 -0.07660431 78.32590266 0.27687885 81.51574707 2.31040955 C83.52539062 4.40405273 83.52539062 4.40405273 84.15429688 6.40405273 C84.03402984 10.02621278 83.93371451 11.85492751 81.71289062 14.84155273 C77.53902008 17.82288884 73.47328133 17.55801317 68.55322266 17.56518555 C67.74151611 17.57015045 66.92980957 17.57511536 66.09350586 17.58023071 C63.40672968 17.59484258 60.72001252 17.60165246 58.03320312 17.60717773 C56.1661682 17.61292968 54.29913328 17.61868741 52.43209839 17.62445068 C48.51641566 17.63495768 44.60075344 17.64080242 40.68505859 17.64428711 C35.66903062 17.64977333 30.65327389 17.67380534 25.63733101 17.70225906 C21.7802959 17.720887 17.92332614 17.72609111 14.06624985 17.72762299 C12.21708568 17.73064934 10.36792266 17.73867728 8.51880264 17.75180817 C5.93110786 17.7688731 3.34407596 17.76698751 0.75634766 17.76049805 C-0.38781113 17.77432022 -0.38781113 17.77432022 -1.55508423 17.78842163 C-6.04282218 17.75318696 -8.92517706 17.20453168 -12.47460938 14.40405273 C-14.53652925 11.31117293 -14.77103206 10.84971054 -14.41210938 7.40405273 C-14.35925781 6.72342773 -14.30640625 6.04280273 -14.25195312 5.34155273 C-11.92659491 -0.45431498 -5.32133453 -0.03041171 0 0 Z " fill="#111111" transform="translate(201.474609375,424.595947265625)"/>
<path d="M0 0 C0.81010025 -0.0049649 1.6202005 -0.00992981 2.45484924 -0.01504517 C5.13681893 -0.02965865 7.81872945 -0.03646765 10.50073242 -0.04199219 C12.36537172 -0.04774458 14.230011 -0.0535023 16.09465027 -0.05926514 C20.00613684 -0.06977299 23.91760286 -0.07561698 27.82910156 -0.07910156 C32.83606337 -0.08458397 37.84275293 -0.1086075 42.8496294 -0.13707352 C46.70241585 -0.15571722 50.55513696 -0.16090643 54.40796471 -0.16243744 C56.2535113 -0.16546089 58.09905683 -0.17347904 59.9445591 -0.18662262 C62.52965497 -0.20371838 65.11408895 -0.20179428 67.69921875 -0.1953125 C68.83798462 -0.20913467 68.83798462 -0.20913467 69.99975586 -0.22323608 C74.74599655 -0.1860439 78.02152477 0.62413644 82.04370117 3.16113281 C83.61070559 6.29514166 83.89534678 9.79268377 83.04370117 13.16113281 C80.10574135 16.24139248 78.43358863 17.11140892 74.16648865 17.65560913 C72.62883129 17.6732042 71.09082479 17.66886819 69.55322266 17.64697266 C68.71035706 17.65076935 67.86749146 17.65456604 66.99908447 17.65847778 C64.22060612 17.66587084 61.44317989 17.64452028 58.66479492 17.62207031 C56.73096337 17.61968524 54.79712947 17.6187807 52.86329651 17.61929321 C48.81398984 17.61616744 44.76503779 17.59961801 40.71582031 17.57275391 C35.52489665 17.53875178 30.3343621 17.53112613 25.14334011 17.53264427 C21.15163966 17.53210052 17.16002429 17.52113292 13.16835213 17.50664139 C11.25418809 17.50027688 9.34001442 17.4963353 7.42584038 17.49485397 C4.75198809 17.49051859 2.07854872 17.47301313 -0.59521484 17.45166016 C-1.38649277 17.45256653 -2.17777069 17.4534729 -2.99302673 17.45440674 C-6.77127785 17.41027669 -9.79421038 17.36584802 -12.95629883 15.16113281 C-15.05309285 12.46525478 -14.95140704 11.06818881 -14.76879883 7.59863281 C-13.69542926 3.05745388 -13.69542926 3.05745388 -10.95629883 1.16113281 C-7.2645149 -0.06946183 -3.84509938 0.00561683 0 0 Z " fill="#111111" transform="translate(201.956298828125,381.8388671875)"/>
<path d="M0 0 C0.86193466 -0.0065712 1.72386932 -0.0131424 2.61192322 -0.01991272 C5.47126344 -0.03966351 8.33055113 -0.0513113 11.18994141 -0.0612793 C12.1650127 -0.06535482 13.140084 -0.06943035 14.14470291 -0.07362938 C19.303986 -0.09449615 24.46324242 -0.10879613 29.62255859 -0.11816406 C34.9582686 -0.12923927 40.29356279 -0.16365027 45.6291256 -0.20333576 C49.72631622 -0.2294454 53.82340685 -0.23785078 57.92067337 -0.24144554 C59.88790322 -0.24632492 61.85512822 -0.25797712 63.82227707 -0.27648354 C66.57326248 -0.30075847 69.32315967 -0.29993159 72.07421875 -0.29296875 C72.88891129 -0.30577881 73.70360382 -0.31858887 74.54298401 -0.33178711 C78.17361565 -0.29823885 80.23687952 -0.1497655 83.1703186 2.08137512 C84.78995109 4.34990782 85.20956695 5.42096689 85.16650391 8.17700195 C85.18197266 9.16700195 85.18197266 9.16700195 85.19775391 10.17700195 C84.39148664 13.21236106 83.16793081 14.2709531 80.66650391 16.17700195 C77.68855214 16.56641237 75.08234998 16.71416859 72.10595703 16.67871094 C70.81261696 16.68681541 70.81261696 16.68681541 69.4931488 16.69508362 C66.64433417 16.70758626 63.79652712 16.6910698 60.94775391 16.6730957 C58.96765083 16.67325066 56.98754744 16.67473901 55.00744629 16.67750549 C50.85801787 16.67889018 46.70893482 16.66631975 42.55957031 16.64355469 C37.23962235 16.61516997 31.92024831 16.61790651 26.60025787 16.6306448 C22.51160781 16.63759836 18.42309051 16.62981636 14.3344574 16.61738777 C12.37284352 16.61287014 10.4112154 16.61253919 8.44960022 16.61645317 C5.70845303 16.61936221 2.96809791 16.60287319 0.22705078 16.58105469 C-0.58449966 16.58555634 -1.39605011 16.59005798 -2.23219299 16.59469604 C-5.48428127 16.55166679 -7.91014234 16.40168756 -10.80993652 14.86268616 C-13.2643956 12.1470438 -13.27179338 9.75575936 -13.33349609 6.17700195 C-10.29159934 -0.48620047 -6.70911916 0.02203405 0 0 Z " fill="#040404" transform="translate(200.33349609375,467.822998046875)"/>
<path d="M0 0 C1.15947647 -0.0131424 1.15947647 -0.0131424 2.34237671 -0.02655029 C4.88898408 -0.048497 7.43384478 -0.03400976 9.98046875 -0.01708984 C11.75496757 -0.02045937 13.52946414 -0.02531313 15.30395508 -0.03158569 C19.01959243 -0.03895057 22.73462802 -0.02826427 26.45019531 -0.00488281 C31.20870359 0.02360516 35.96580186 0.00719906 40.72425842 -0.02274513 C44.3875182 -0.04082877 48.05044468 -0.03505528 51.7137146 -0.02210617 C53.46796842 -0.01877508 55.22225268 -0.02284881 56.97647095 -0.03450394 C59.43043954 -0.04723085 61.8821377 -0.02781325 64.3359375 0 C65.05816498 -0.01012115 65.78039246 -0.02024231 66.52450562 -0.03067017 C70.39583073 0.05045932 72.05880889 0.56040749 75.13012695 2.9960022 C77.16796875 5.64697266 77.16796875 5.64697266 77.60546875 8.70947266 C77.17625092 11.5913638 76.91050247 13.32359436 75.16796875 15.64697266 C71.0645313 17.76455997 67.24202595 17.93803097 62.71899414 17.92163086 C61.62044853 17.92929726 61.62044853 17.92929726 60.49971008 17.93711853 C58.08826435 17.95097379 55.67710571 17.9500609 53.265625 17.94775391 C51.5832051 17.95164298 49.90078618 17.95597809 48.21836853 17.96073914 C44.69543268 17.96819252 41.17259707 17.9679164 37.6496582 17.96264648 C33.14268075 17.95685202 28.63611427 17.97378642 24.12920475 17.99699116 C20.65556961 18.01174679 17.18203305 18.01259773 13.70837212 18.00948143 C12.0470441 18.00999369 10.38571043 18.01521352 8.72441292 18.02529335 C6.39811876 18.03767666 4.07262001 18.03085541 1.74633789 18.01928711 C1.06510864 18.02693085 0.38387939 18.03457458 -0.31799316 18.04244995 C-4.85669861 17.99274503 -7.98040581 17.03910362 -11.83203125 14.64697266 C-12.8125 12.56103516 -12.8125 12.56103516 -13.01953125 10.27197266 C-13.11621094 9.52173828 -13.21289062 8.77150391 -13.3125 7.99853516 C-11.89317363 1.05191342 -6.15204465 -0.08621355 0 0 Z " fill="#111111" transform="translate(382.83203125,296.35302734375)"/>
<path d="M0 0 C2.5 2.125 2.5 2.125 4 5 C4.07608719 9.26088246 3.71496606 11.23728577 0.77734375 14.37109375 C-0.13917969 15.23863281 -1.05570313 16.10617187 -2 17 C-2.8971875 17.90878906 -3.794375 18.81757813 -4.71875 19.75390625 C-5.6365625 20.68074219 -6.554375 21.60757812 -7.5 22.5625 C-8.4178125 23.49191406 -9.335625 24.42132813 -10.28125 25.37890625 C-12.75180504 27.76072009 -15.28285624 29.9079962 -18 32 C-9.08656283 41.0986374 -9.08656283 41.0986374 0.4765625 49.5 C2.23413861 51.23053647 3.11710932 52.70006978 4 55 C3.87213096 58.64426778 3.76034026 61.05717808 1.4375 63.9375 C-2.04399121 65.45507309 -5.29970855 65.63980858 -9 65 C-11.45404996 63.29336106 -13.16682948 61.86470044 -15.1875 59.75 C-16.30530281 58.6477406 -17.42381403 57.54619923 -18.54296875 56.4453125 C-19.10935059 55.87586914 -19.67573242 55.30642578 -20.25927734 54.71972656 C-23.59505481 51.42418428 -27.11352699 48.32273927 -30.59838867 45.18652344 C-34.06781939 42.01060445 -37.18995382 38.78275447 -40 35 C-40.125 31.4375 -40.125 31.4375 -39 28 C-37.38556061 26.28269368 -35.70913843 24.62308391 -34 23 C-33.05250365 22.04772663 -32.10856327 21.09190366 -31.16796875 20.1328125 C-9.08169441 -2.19213313 -9.08169441 -2.19213313 0 0 Z " fill="#111111" transform="translate(227,273)"/>
<path d="M0 0 C3.05303053 2.25369163 5.73403069 4.83954888 8.44287109 7.49169922 C10.20546853 9.19902549 11.99981826 10.86835986 13.80078125 12.53515625 C29.74489304 27.29470429 29.74489304 27.29470429 31.0625 30.9375 C30.92228591 37.80799033 25.00151227 42.2342875 20.3828125 46.75390625 C17.56220357 49.41267696 14.6770711 51.97879128 11.7265625 54.4921875 C9.9695883 55.97796098 9.9695883 55.97796098 8.3984375 57.6953125 C7 59 7 59 5 59 C5 59.66 5 60.32 5 61 C2.06429427 64.21980628 -0.30035414 65.33040295 -4.5625 65.5625 C-8.01037139 65.39585288 -8.79828879 65.16727271 -11.5625 62.875 C-13.33033071 59.33933859 -13.84034017 57.89612263 -13 54 C-10.24031873 49.70609034 -6.41304552 46.3485459 -2.640625 42.9609375 C-1.758302 42.16550537 -1.758302 42.16550537 -0.8581543 41.35400391 C0.32764948 40.29476111 1.52402339 39.24722005 2.73120117 38.21240234 C4.22863651 36.88800884 5.62313302 35.44933367 7 34 C7.44527316 30.12088471 7.44527316 30.12088471 5.49609375 28.32421875 C4.81675781 27.78410156 4.13742187 27.24398438 3.4375 26.6875 C-0.06249512 23.80077836 -3.30088075 20.80462964 -6.4609375 17.55078125 C-8.08599176 15.86725295 -8.08599176 15.86725295 -10.375 14 C-12.73329557 11.09748237 -12.8684799 8.68256285 -13 5 C-12.21270916 2.35183989 -11.47719891 1.37115471 -9.3125 -0.3125 C-5.8371284 -1.34571858 -3.31772214 -1.37064197 0 0 Z " fill="#0F0F0F" transform="translate(317,273)"/>
<path d="M0 0 C0.81597656 -0.020625 1.63195312 -0.04125 2.47265625 -0.0625 C6.01640764 -0.08562399 8.45509217 -0.09797701 11.63671875 1.5546875 C14.03923865 4.2914162 14.06354628 6.68568418 14.125 10.25 C12.77937601 13.19755732 12.03945456 14.79277272 9.125 16.25 C7.08444995 16.32065617 5.04165743 16.33421976 3 16.3125 C0.091875 16.2815625 0.091875 16.2815625 -2.875 16.25 C-2.875 20.87 -2.875 25.49 -2.875 30.25 C-0.5546875 30.1571875 -0.5546875 30.1571875 1.8125 30.0625 C6.0921446 30.06855325 8.79171336 30.33337419 12.125 33.25 C14.05363839 35.79229606 14.13402291 37.03345018 14 40.25 C12.95604576 43.82927167 12.0871704 45.00217938 9.125 47.25 C6.37205382 47.65519554 4.11510771 47.82245781 1.375 47.75 C0.65924805 47.73864014 -0.05650391 47.72728027 -0.79394531 47.71557617 C-7.9688751 47.45162374 -12.29857745 45.95854679 -17.3125 40.6875 C-20.76919812 35.29505094 -20.13264664 29.63592972 -20.1875 23.4375 C-20.21650391 22.35662109 -20.24550781 21.27574219 -20.27539062 20.16210938 C-20.32572617 13.85467872 -20.16111546 10.01235051 -15.875 5.25 C-10.49620606 0.51153867 -7.03600478 0.04404385 0 0 Z " fill="#0F0F0F" transform="translate(348.875,409.75)"/>
<path d="M0 0 C2.375 1.0625 2.375 1.0625 4 3 C4.75 6.6875 4.75 6.6875 5 10 C6.093125 10.0825 7.18625 10.165 8.3125 10.25 C12 11 12 11 13.9375 12.6875 C15.62443257 16.35905912 15.48206008 19.42234883 14.3125 23.25 C12.52418053 25.63442596 10.82646274 26.17274261 8 27 C7.01 27 6.02 27 5 27 C4.9071875 28.36125 4.9071875 28.36125 4.8125 29.75 C4 33 4 33 1.9375 35.4375 C-1.5200495 37.27662207 -3.41080009 37.37946527 -7.1953125 36.6796875 C-9 36 -9 36 -11 33.6875 C-12 31 -12 31 -12 27 C-12.9075 26.9175 -13.815 26.835 -14.75 26.75 C-18.55587463 25.87172124 -19.83666939 25.24499591 -22 22 C-22.61619236 19.19546093 -22.66516463 16.79827879 -22 14 C-19.4555019 11.09200217 -18.04601863 10.09297943 -14.1875 9.75 C-13.465625 9.8325 -12.74375 9.915 -12 10 C-11.9175 8.906875 -11.835 7.81375 -11.75 6.6875 C-11 3 -11 3 -9.375 1.0625 C-6.05609564 -0.422273 -3.59655194 -0.38534485 0 0 Z " fill="#121212" transform="translate(382,415)"/>
<path d="M0 0 C3.24499591 2.16333061 3.87172124 3.44412537 4.75 7.25 C4.87375 8.61125 4.87375 8.61125 5 10 C6.093125 10.061875 7.18625 10.12375 8.3125 10.1875 C12 11 12 11 14 13.125 C15.29822018 16.85738301 14.98586223 19.19738855 14 23 C12.8125 24.875 12.8125 24.875 11 26 C7.8125 26.6875 7.8125 26.6875 5 27 C4.9071875 28.36125 4.9071875 28.36125 4.8125 29.75 C4 33 4 33 1.9375 35.4375 C-1.5365389 37.28539303 -3.40276419 37.32495015 -7.1953125 36.609375 C-9 36 -9 36 -11 34.25 C-12.15310705 31.65550914 -12.23416481 29.80997777 -12 27 C-13.093125 26.9175 -14.18625 26.835 -15.3125 26.75 C-19 26 -19 26 -20.9375 24.4375 C-22.47444284 20.9115723 -22.82780741 17.77542072 -22 14 C-19.4555019 11.09200217 -18.04601863 10.09297943 -14.1875 9.75 C-13.465625 9.8325 -12.74375 9.915 -12 10 C-12.0825 9.0925 -12.165 8.185 -12.25 7.25 C-12 4 -12 4 -10.5 1.625 C-6.99455608 -0.65353855 -4.07026042 -0.81906678 0 0 Z " fill="#111111" transform="translate(423,415)"/>
<path d="M0 0 C0.33 0.99 0.66 1.98 1 3 C0.36908447 3.60996826 -0.26183105 4.21993652 -0.91186523 4.84838867 C-3.25513681 7.12335716 -5.58902906 9.40716568 -7.91723633 11.69750977 C-8.92536393 12.68556224 -9.93705782 13.66998993 -10.95239258 14.65063477 C-12.41407138 16.06361482 -13.86228763 17.48927777 -15.30859375 18.91796875 C-16.18314209 19.77156982 -17.05769043 20.6251709 -17.95874023 21.50463867 C-20.10035004 24.12267405 -20.68501053 25.67568969 -21 29 C-21.33 29 -21.66 29 -22 29 C-22.52239152 26.01490559 -22.5397653 23.8613276 -20.8984375 21.2421875 C-16.53504396 16.10499018 -11.45537852 11.61801664 -6.44458008 7.12451172 C-3.92473578 4.8546032 -1.89192416 2.83788624 0 0 Z " fill="#696969" transform="translate(326,304)"/>
<path d="M0 0 C0.66 0.33 1.32 0.66 2 1 C-3.94 6.94 -9.88 12.88 -16 19 C-16 16 -16 16 -13.86328125 13.67578125 C-12.91839844 12.79277344 -11.97351563 11.90976562 -11 11 C-10.03123284 10.03909568 -9.06642336 9.07418603 -8.10546875 8.10546875 C-5.40364583 5.40364583 -2.70182292 2.70182292 0 0 Z " fill="#6C6C6C" transform="translate(205,284)"/>
<path d="M0 0 C0.66 0.33 1.32 0.66 2 1 C-0.97 3.97 -3.94 6.94 -7 10 C-7 5.69032084 -4.83274712 4.10253255 -2 1 C-1.34 0.67 -0.68 0.34 0 0 Z " fill="#575757" transform="translate(316,385)"/>
<path d="M0 0 C0.66 0.33 1.32 0.66 2 1 C-0.64 3.64 -3.28 6.28 -6 9 C-6 6 -6 6 -3.5625 3.375 C-2.716875 2.59125 -1.87125 1.8075 -1 1 C-0.67 0.67 -0.34 0.34 0 0 Z " fill="#595959" transform="translate(53,40)"/>
</svg>
