<?xml version="1.0" encoding="UTF-8"?>
<svg version="1.1" xmlns="http://www.w3.org/2000/svg" width="512" height="512">
<path d="M0 0 C2.42298145 1.47876601 2.42298145 1.47876601 4.6171875 0.640625 C6.65710351 -0.82869792 6.65710351 -0.82869792 8.8046875 -2.796875 C14.22961815 -6.74227911 19.92178465 -7.30623145 26.390625 -6.328125 C33.14258657 -4.67060375 37.68620183 -0.44511126 41.5546875 5.203125 C44.56076757 11.62520514 44.22834552 17.64094417 42.0546875 24.203125 C41.56659397 25.54086282 41.0708112 26.87594977 40.5546875 28.203125 C41.08835937 28.69039062 41.62203125 29.17765625 42.171875 29.6796875 C64.52556587 50.95050061 77.08391578 81.32861854 77.95776367 111.97729492 C78.27208742 140.29095368 67.25304808 166.04169378 57.5546875 192.203125 C41.15769818 236.46310638 28.57526049 280.03485888 27.27001953 327.56054688 C26.5982227 350.46700305 21.22297005 370.58219552 4.5546875 387.203125 C-25.51061604 414.77627805 -69.54955605 418.75404146 -108.4453125 417.203125 C-155.99512351 414.53660371 -241.31352215 401.33491535 -277.4453125 365.203125 C-279.68034308 365.09291003 -281.91859121 365.0471473 -284.15625 365.02734375 C-285.56121219 365.00410282 -286.96616008 364.9799839 -288.37109375 364.95507812 C-290.58033202 364.92029272 -292.78905937 364.89081766 -294.99853516 364.87719727 C-307.93460626 364.78188502 -319.27555415 362.85414817 -329.4453125 354.203125 C-335.22347677 348.13891299 -339.99842425 340.57660595 -341.4453125 332.203125 C-341.3525 331.26082031 -341.2596875 330.31851562 -341.1640625 329.34765625 C-340.82478383 324.17971512 -340.91901065 320.28513775 -344.01171875 316.06640625 C-348.18323449 311.44705383 -352.80286918 307.29985885 -357.40625 303.11865234 C-361.57065588 299.20654405 -364.9413734 294.70321378 -368.4453125 290.203125 C-369.92363427 288.45241121 -371.4028267 286.70243231 -372.8828125 284.953125 C-406.35230438 243.87164799 -422.63142114 190.34735981 -418.14501953 137.67773438 C-416.53715177 124.08561915 -413.170347 111.02862455 -408.4453125 98.203125 C-408.18379395 97.48608398 -407.92227539 96.76904297 -407.65283203 96.03027344 C-399.41260711 73.83767749 -386.84296718 54.26108792 -370.4453125 37.203125 C-370.00251953 36.73455078 -369.55972656 36.26597656 -369.10351562 35.78320312 C-305.57966781 -31.22617818 -198.61271328 -36.66819273 0 0 Z M18.5546875 9.203125 C19.73213335 12.73546255 20.51074391 13.06620575 23.6171875 14.890625 C24.35066406 15.32761719 25.08414062 15.76460937 25.83984375 16.21484375 C26.68869141 16.70404297 26.68869141 16.70404297 27.5546875 17.203125 C27.8846875 16.213125 28.2146875 15.223125 28.5546875 14.203125 C27.08660249 11.38811256 27.08660249 11.38811256 24.5546875 9.203125 C21.38620723 8.78503299 21.38620723 8.78503299 18.5546875 9.203125 Z " fill="#F0F0EF" transform="translate(426.4453125,62.796875)"/>
<path d="M0 0 C1.05960938 0.52464844 2.11921875 1.04929688 3.2109375 1.58984375 C11.64951865 6.11921342 18.29737375 12.25939853 25 19 C25.6909375 19.6909375 26.381875 20.381875 27.09375 21.09375 C42.47613961 37.59485885 49.591151 58.91531815 49.3125 81.0625 C49.31572266 82.34705078 49.31894531 83.63160156 49.32226562 84.95507812 C49.19753452 107.19123181 41.36784091 126.07270564 27 143 C26.50757813 143.62648438 26.01515625 144.25296875 25.5078125 144.8984375 C11.96909773 161.80270849 -11.88093599 172.43292276 -33 175 C-42.79749038 175.72282434 -52.36901653 174.92619669 -62 173 C-63.44052734 172.74283203 -63.44052734 172.74283203 -64.91015625 172.48046875 C-87.75420078 167.71488745 -108.25716314 151.54566838 -120.9296875 132.46875 C-133.94658741 111.32084538 -138.28608773 86.67835393 -133.8203125 62.2109375 C-127.3097399 36.72669618 -112.13412159 15.78453562 -89.65625 2.07421875 C-61.97284534 -14.08678381 -28.34582983 -14.38730801 0 0 Z " fill="#010201" transform="translate(377,252)"/>
<path d="M0 0 C1.33665988 -0.00785502 1.33665988 -0.00785502 2.70032299 -0.01586872 C5.67476279 -0.03082395 8.64902988 -0.0315729 11.62350464 -0.03224182 C13.76105539 -0.03986642 15.8986034 -0.04829443 18.03614807 -0.0574646 C23.83601355 -0.07938937 29.63582631 -0.08820604 35.43572855 -0.09329104 C39.06296187 -0.09693762 42.69018144 -0.10317932 46.31740952 -0.11029243 C58.98243566 -0.13478188 71.64742088 -0.14783732 84.31246948 -0.15138245 C96.09981095 -0.1550152 107.88689164 -0.18489347 119.67415345 -0.22678703 C129.80775627 -0.26153474 139.94127287 -0.27693168 150.07493484 -0.27762848 C156.12112206 -0.27841989 162.16704367 -0.28709603 168.2131691 -0.31562614 C173.90471241 -0.34188264 179.59577133 -0.34396941 185.28734779 -0.3279705 C187.36855314 -0.32616194 189.44978682 -0.33279272 191.53093147 -0.34878922 C207.68292536 -0.46530441 220.35377625 1.27558313 232.57223511 12.82493591 C238.65519439 19.26119839 243.06357003 28.45677446 243.05186462 37.39970398 C243.05392662 38.61959015 243.05392662 38.61959015 243.05603027 39.86412048 C243.052435 40.74741028 243.04883972 41.63070007 243.0451355 42.54075623 C243.04528152 43.47768311 243.04542755 44.41460999 243.045578 45.37992859 C243.04488168 48.47490255 243.03710234 51.56981623 243.02926636 54.66477966 C243.02740118 56.81140612 243.02597775 58.958033 243.02497864 61.10466003 C243.02116129 66.75337398 243.01133765 72.4020622 243.00027466 78.05076599 C242.99004374 83.81532951 242.98547741 89.57989718 242.98043823 95.34446716 C242.96971471 106.65437612 242.95212421 117.96425922 242.93161011 129.27415466 C235.67161011 129.27415466 228.41161011 129.27415466 220.93161011 129.27415466 C220.92750122 126.40268738 220.92339233 123.53122009 220.91915894 120.57273865 C220.90194862 111.0771153 220.85742534 101.58176079 220.79951954 92.08630276 C220.76525346 86.33010095 220.74014009 80.57416446 220.73605347 74.81785583 C220.73176981 69.26089814 220.7033006 63.70453891 220.65817833 58.14776802 C220.64520564 56.02957204 220.64089482 53.91130444 220.64545631 51.79307365 C220.65036376 48.82183884 220.6242625 45.85235212 220.59103394 42.8813324 C220.59965958 42.00882843 220.60828522 41.13632446 220.61717224 40.23738098 C220.52245826 35.17327168 219.63580402 31.89482533 216.68577099 27.76062107 C211.31449787 23.20903339 205.66658837 22.83577251 198.94346619 22.87974548 C198.06108243 22.87365438 197.17869867 22.86756328 196.26957601 22.86128759 C193.32483849 22.8446925 190.38053502 22.84942842 187.4357605 22.85423279 C185.31965182 22.8468905 183.20354714 22.8383038 181.08744812 22.8285675 C175.3478036 22.80636119 169.60830269 22.80342035 163.86862111 22.80531502 C159.07481279 22.80543474 154.28103487 22.79686981 149.48723501 22.7885375 C138.17741296 22.76930708 126.86766473 22.76641852 115.55783081 22.7731781 C103.89420872 22.77982085 92.23090271 22.75694407 80.56734473 22.71986437 C70.54845929 22.68917015 60.52967555 22.67780699 50.51074404 22.68170118 C44.52900351 22.68376872 38.54750903 22.67828809 32.56581306 22.65380859 C26.94074797 22.6315485 21.31619711 22.6334136 15.69112968 22.65373611 C13.62879411 22.65714727 11.56642395 22.65205258 9.50413513 22.63775253 C6.68440425 22.61955194 3.86641646 22.6323151 1.04673767 22.6526947 C0.23437041 22.64017685 -0.57799685 22.62765901 -1.41498131 22.61476183 C-7.37428143 22.70684201 -11.55120484 24.33363077 -16.06838989 28.27415466 C-19.96517755 33.44748733 -19.49200977 39.09104451 -19.45606995 45.3059845 C-19.46145548 46.42027631 -19.46684102 47.53456813 -19.47238976 48.68262637 C-19.48670246 52.41816335 -19.47955719 56.15334764 -19.47244263 59.88890076 C-19.47814448 62.56643802 -19.48500733 65.24394991 -19.49324036 67.92147827 C-19.51042982 74.44055619 -19.51126802 80.95953773 -19.50602745 87.47863244 C-19.5019845 92.7782975 -19.50343079 98.0779341 -19.50877571 103.37759781 C-19.50989834 104.50942415 -19.50989834 104.50942415 -19.51104366 105.66411567 C-19.51257515 107.19704163 -19.5141135 108.72996757 -19.51565862 110.26289351 C-19.5293844 124.63625924 -19.52394562 139.00957052 -19.51247341 153.382935 C-19.50254268 166.52688475 -19.51547876 179.6706937 -19.5394076 192.81462173 C-19.56380213 206.31625313 -19.5734055 219.81781896 -19.56675488 233.31947196 C-19.56326321 240.89742923 -19.56549111 248.47527824 -19.58300591 256.05321884 C-19.59773239 262.50473387 -19.59835769 268.95606441 -19.58093499 275.40757583 C-19.57242577 278.69777566 -19.57244354 281.98757841 -19.58558655 285.2777729 C-19.5987603 288.84827915 -19.5872794 292.41788991 -19.56959534 295.98835754 C-19.57920034 297.02319098 -19.58880535 298.05802441 -19.59870142 299.12421644 C-19.53591368 305.28633719 -18.73776284 310.18717618 -15.06838989 315.27415466 C-9.17541995 320.12660586 -3.38932878 319.85317215 4.01730347 319.8200531 C5.21801483 319.83039078 6.4187262 319.84072845 7.65582275 319.85137939 C10.93025049 319.87573279 14.20414589 319.88264663 17.47864604 319.88165951 C20.90735298 319.88479843 24.33589182 319.91043687 27.76451111 319.93363953 C34.24893943 319.97412848 40.73326737 319.99452341 47.21780258 320.00761342 C54.60364573 320.02350766 61.98931864 320.06193337 69.37506282 320.10220671 C84.56052589 320.18450827 99.74596234 320.23786194 114.93161011 320.27415466 C114.93161011 327.53415466 114.93161011 334.79415466 114.93161011 342.27415466 C98.82364238 342.36696717 82.71578588 342.43824348 66.60761547 342.48140335 C59.127386 342.50198077 51.64732628 342.53000836 44.16720581 342.57591248 C37.64337029 342.61592878 31.1196578 342.64162247 24.59570295 342.65050864 C21.14502395 342.65569857 17.69469673 342.66779419 14.24413109 342.69707489 C10.38102268 342.72958685 6.51825045 342.73010464 2.65499878 342.72825623 C1.5257045 342.74263733 0.39641022 342.75701843 -0.7671051 342.77183533 C-11.76328679 342.715162 -21.61645463 339.46389166 -30.06838989 332.27415466 C-37.0903109 324.9046138 -42.18044163 315.82384702 -42.20261097 305.48667812 C-42.20706881 304.52059704 -42.21152666 303.55451596 -42.21611959 302.5591597 C-42.21593522 301.5005217 -42.21575086 300.44188371 -42.21556091 299.35116577 C-42.2192376 298.22436529 -42.22291429 297.09756481 -42.22670239 295.93661886 C-42.23774841 292.1467011 -42.24158466 288.35681074 -42.24539185 284.56687927 C-42.25112381 281.85510524 -42.25828978 279.14333531 -42.26530457 276.43156433 C-42.28505695 268.2833154 -42.29513409 260.13506526 -42.30403236 251.98679838 C-42.30841767 248.14738261 -42.31378389 244.30796822 -42.31902122 240.46855354 C-42.33603305 227.70124441 -42.35052617 214.93393612 -42.35776997 202.16661739 C-42.35967979 198.85423723 -42.36160013 195.54185707 -42.36355591 192.22947693 C-42.36403965 191.40622406 -42.36452339 190.58297119 -42.36502179 189.73477126 C-42.37331817 176.40520294 -42.39864864 163.07572447 -42.43113659 149.74619537 C-42.46423652 136.05365356 -42.48222142 122.36115737 -42.48541421 108.66857535 C-42.4875767 100.98372517 -42.49628694 93.29900599 -42.52187538 85.61419487 C-42.54362261 79.06794794 -42.55161315 72.52186382 -42.5419086 65.97558486 C-42.53737522 62.63837749 -42.54139159 59.30177709 -42.55867004 55.964571 C-42.57639224 52.33810907 -42.56927992 48.71249204 -42.55613708 45.08602905 C-42.56710633 44.04300611 -42.57807558 42.99998317 -42.58937722 41.92535347 C-42.48741237 30.2287145 -38.29080985 19.79349507 -30.18557739 11.30149841 C-21.38271638 3.17179736 -11.83151757 -0.03472535 0 0 Z " fill="#060606" transform="translate(127.06838989257813,84.72584533691406)"/>
<path d="M0 0 C-0.53596802 0.83108276 -0.53596802 0.83108276 -1.08276367 1.67895508 C-6.40539848 11.30618363 -5.56161621 21.03002663 -5.3125 31.6875 C-5.28737494 33.56442328 -5.26456923 35.44137911 -5.24414062 37.31835938 C-5.18950353 41.87972143 -5.10346695 46.43949498 -5 51 C-4.60748047 50.38439209 -4.21496094 49.76878418 -3.81054688 49.13452148 C-3.28525391 48.32571533 -2.75996094 47.51690918 -2.21875 46.68359375 C-1.70248047 45.88236084 -1.18621094 45.08112793 -0.65429688 44.25561523 C3.13395074 39.0903821 7.91945351 36.68990798 14 35 C16.8972732 34.74203317 19.77288417 34.76613773 22.6796875 34.8046875 C23.49245148 34.8075174 24.30521545 34.81034729 25.14260864 34.81326294 C27.72022675 34.82439381 30.29748819 34.84948485 32.875 34.875 C34.63020329 34.88503899 36.38541206 34.89416323 38.140625 34.90234375 C42.4273289 34.92260228 46.71326858 34.96176355 51 35 C51 42.26 51 49.52 51 57 C48.55722656 57.06058594 46.11445313 57.12117188 43.59765625 57.18359375 C41.24125937 57.24533798 38.8849127 57.30874433 36.52856445 57.37231445 C34.88635697 57.41572297 33.24410261 57.45739358 31.60180664 57.49731445 C29.24611255 57.5548744 26.89065572 57.61860892 24.53515625 57.68359375 C23.79660904 57.70030624 23.05806183 57.71701874 22.2971344 57.73423767 C18.85699373 57.53548013 18.85699373 57.53548013 16 59 C15.89896745 61.79993597 15.86029912 64.57468644 15.8671875 67.375 C15.86623077 68.21466309 15.86527405 69.05432617 15.86428833 69.91943359 C15.86360652 71.69824295 15.86546083 73.47705477 15.86962891 75.25585938 C15.87497717 77.98833776 15.86968395 80.72065176 15.86328125 83.453125 C15.86394203 85.1770837 15.86522319 86.90104229 15.8671875 88.625 C15.86516327 89.44790527 15.86313904 90.27081055 15.86105347 91.11865234 C15.5142454 94.86379866 15.5142454 94.86379866 17 98 C19.51880517 98.15988491 22.01342266 98.25934225 24.53515625 98.31640625 C25.66503212 98.3475779 25.66503212 98.3475779 26.81773376 98.37937927 C29.2325599 98.44495425 31.64749798 98.50379621 34.0625 98.5625 C35.69597529 98.6056777 37.3294391 98.64929173 38.96289062 98.69335938 C42.97514718 98.80146797 46.98748424 98.90048114 51 99 C51 106.26 51 113.52 51 121 C46.05519166 121.09242632 41.11344479 121.17187493 36.16845703 121.21972656 C34.49061869 121.23969699 32.81284864 121.26688332 31.13525391 121.30175781 C19.64828924 121.53437056 9.88371411 121.68616942 0.9375 113.5 C-1.39395915 111.08625406 -2.41143188 109.3134205 -3 106 C-3.99 106 -4.98 106 -6 106 C-5.98617863 129.40959678 -5.94387727 152.81899333 -5.86790943 176.22847462 C-5.83329416 187.0985468 -5.80790844 197.96849262 -5.80444336 208.83862305 C-5.80139866 218.31587332 -5.78084009 227.79289836 -5.73947543 237.27006167 C-5.71818977 242.28563501 -5.70552204 247.30088848 -5.71384621 252.31650734 C-5.72141439 257.04364463 -5.70545148 261.77013528 -5.67193985 266.49715424 C-5.66373984 268.22601352 -5.66391714 269.9549375 -5.67340279 271.68379021 C-5.7214381 281.40629517 -5.16522015 289.42053911 0 298 C-16.10693488 298.94376572 -16.10693488 298.94376572 -21.33599478 294.64468813 C-26.4154264 289.62422257 -27.46023565 283.77303437 -27.53963572 276.85938597 C-27.53139495 275.82591677 -27.52315418 274.79244758 -27.5146637 273.72766113 C-27.52160922 272.61166047 -27.52855475 271.4956598 -27.53571075 270.34584093 C-27.55396746 266.61642344 -27.54371958 262.88764299 -27.53344727 259.15820312 C-27.54050635 256.48036228 -27.5491148 253.80256628 -27.55955505 251.1247406 C-27.58116304 244.61259735 -27.58107655 238.10062906 -27.57292951 231.58846176 C-27.5666223 226.29455815 -27.56777313 221.00070545 -27.57420158 215.70680237 C-27.57510324 214.95252245 -27.57600489 214.19824254 -27.57693387 213.42110565 C-27.57878512 211.88866276 -27.58064768 210.35621988 -27.58252143 208.82377702 C-27.59908849 194.46373927 -27.59038975 180.10379986 -27.57353585 165.74376804 C-27.55883718 152.61284658 -27.57347151 139.48215391 -27.60230602 126.35126191 C-27.63171369 112.85859699 -27.64266848 99.3660376 -27.63312382 85.87334204 C-27.63210129 84.34662725 -27.63110668 82.81991245 -27.6301403 81.29319763 C-27.62966391 80.54208113 -27.62918752 79.79096462 -27.6286967 79.01708701 C-27.62653452 73.73128565 -27.63632606 68.44558445 -27.65091133 63.1598053 C-27.66844551 56.71561997 -27.66830186 50.27172636 -27.64555968 43.82755244 C-27.63442738 40.54131566 -27.63394247 37.25569784 -27.64986038 33.96946526 C-27.66576793 30.4032657 -27.6508589 26.83847194 -27.62818909 23.27233887 C-27.64002482 22.23886967 -27.65186054 21.20540048 -27.66405493 20.14061403 C-27.57875045 13.53464056 -26.31125456 9.09360389 -22 4 C-15.6493494 -1.52230487 -7.94849772 -0.36827016 0 0 Z " fill="#D4DAE0" transform="translate(134,107)"/>
<path d="M0 0 C-1.45712002 3.34886382 -3.29815593 5.54936486 -5.87158203 8.12554932 C-6.67919983 8.93880676 -7.48681763 9.75206421 -8.31890869 10.58996582 C-9.20624695 11.47325562 -10.09358521 12.35654541 -11.0078125 13.26660156 C-11.9510785 14.21257847 -12.89391868 15.15898014 -13.83636475 16.10577393 C-16.39361325 18.67213434 -18.95714071 21.23213521 -21.52211761 23.79076862 C-24.20410051 26.46768833 -26.88120073 29.14948381 -29.55908203 31.83050537 C-34.05467562 36.32973641 -38.55446772 40.82473608 -43.05664062 45.31738281 C-48.26707051 50.51691535 -53.47023832 55.72363171 -58.66971779 60.93411279 C-63.13147068 65.40492908 -67.59709357 69.87185177 -72.06599998 74.33551764 C-74.73636757 77.00276201 -77.40535308 79.67135159 -80.07086182 82.34345245 C-83.03894682 85.31836492 -86.01510318 88.28507004 -88.9921875 91.25097656 C-89.87952576 92.14236328 -90.76686401 93.03375 -91.68109131 93.95214844 C-92.48870911 94.75412659 -93.2963269 95.55610474 -94.12841797 96.38238525 C-94.83191376 97.08512699 -95.53540955 97.78786873 -96.26022339 98.51190567 C-98 100 -98 100 -100 100 C-111.50018079 84.44433983 -115.08601286 64.77549506 -112.73193359 45.84423828 C-109.65822482 28.34540118 -98.94033462 11.56756639 -84.8671875 0.9140625 C-58.70858721 -16.54876331 -26.66768795 -18.30135447 0 0 Z " fill="#2EDD83" transform="translate(376,276)"/>
<path d="M0 0 C12.51377555 15.64221944 15.54337802 32.4229847 14 52 C10.73247162 72.33467445 0.31395696 88.47040517 -15.65234375 101.09765625 C-31.88603813 112.20492083 -52.13260986 115.64930001 -71.40625 112.3515625 C-81.4421989 110.25068156 -91.66141305 106.33858695 -99 99 C-66.33 66.33 -33.66 33.66 0 0 Z " fill="#2EDE83" transform="translate(391,292)"/>
<path d="M0 0 C0.81276398 0.0028299 1.62552795 0.00565979 2.46292114 0.00857544 C5.04053925 0.01970631 7.61780069 0.04479735 10.1953125 0.0703125 C11.95051579 0.08035149 13.70572456 0.08947573 15.4609375 0.09765625 C19.7476414 0.11791478 24.03358108 0.15707605 28.3203125 0.1953125 C28.3203125 7.4553125 28.3203125 14.7153125 28.3203125 22.1953125 C25.87753906 22.25589844 23.43476563 22.31648438 20.91796875 22.37890625 C18.56157187 22.44065048 16.2052252 22.50405683 13.84887695 22.56762695 C12.20666947 22.61103547 10.56441511 22.65270608 8.92211914 22.69262695 C6.56642505 22.7501869 4.21096822 22.81392142 1.85546875 22.87890625 C1.11692154 22.89561874 0.37837433 22.91233124 -0.3825531 22.92955017 C-3.82269377 22.73079263 -3.82269377 22.73079263 -6.6796875 24.1953125 C-6.78072005 26.99524847 -6.81938838 29.76999894 -6.8125 32.5703125 C-6.81345673 33.40997559 -6.81441345 34.24963867 -6.81539917 35.11474609 C-6.81608098 36.89355545 -6.81422667 38.67236727 -6.81005859 40.45117188 C-6.80471033 43.18365026 -6.81000355 45.91596426 -6.81640625 48.6484375 C-6.81574547 50.3723962 -6.81446431 52.09635479 -6.8125 53.8203125 C-6.81452423 54.64321777 -6.81654846 55.46612305 -6.81863403 56.31396484 C-7.1654421 60.05911116 -7.1654421 60.05911116 -5.6796875 63.1953125 C-3.16088233 63.35519741 -0.66626484 63.45465475 1.85546875 63.51171875 C2.60871933 63.53249985 3.36196991 63.55328094 4.13804626 63.57469177 C6.5528724 63.64026675 8.96781048 63.69910871 11.3828125 63.7578125 C13.01628779 63.8009902 14.6497516 63.84460423 16.28320312 63.88867188 C20.29545968 63.99678047 24.30779674 64.09579364 28.3203125 64.1953125 C28.3203125 71.4553125 28.3203125 78.7153125 28.3203125 86.1953125 C23.37550416 86.28773882 18.43375729 86.36718743 13.48876953 86.41503906 C11.81093119 86.43500949 10.13316114 86.46219582 8.45556641 86.49707031 C-2.87457716 86.72650741 -12.56743617 86.85347334 -21.5546875 79.0078125 C-27.20430402 73.40078103 -29.12641763 65.9899815 -29.26112366 58.26625061 C-29.25616379 57.3160051 -29.25120392 56.36575958 -29.24609375 55.38671875 C-29.25229233 54.3799559 -29.25849091 53.37319305 -29.26487732 52.33592224 C-29.27194185 50.21899374 -29.2688608 48.10200928 -29.25610352 45.98510742 C-29.2422384 42.7696173 -29.27636071 39.55704205 -29.31445312 36.34179688 C-29.31540454 34.2734368 -29.31354432 32.20507312 -29.30859375 30.13671875 C-29.32185196 29.18849747 -29.33511017 28.24027618 -29.34877014 27.26332092 C-29.23929868 19.30462666 -26.88097078 12.66940079 -21.43359375 6.7578125 C-20.34884766 5.984375 -20.34884766 5.984375 -19.2421875 5.1953125 C-18.52160156 4.6590625 -17.80101562 4.1228125 -17.05859375 3.5703125 C-11.4177452 0.30992056 -6.3381153 -0.08405553 0 0 Z " fill="#040404" transform="translate(156.6796875,141.8046875)"/>
<path d="M0 0 C-0.96099609 0.76183594 -0.96099609 0.76183594 -1.94140625 1.5390625 C-3.74544134 2.97476256 -5.54465953 4.41652941 -7.33984375 5.86328125 C-8.86093689 7.08506972 -10.39000227 8.29740615 -11.94140625 9.48046875 C-24.17873612 19.16243972 -35.16235882 38.42471487 -37 54 C-37.90683857 66.7321755 -38.33768491 79.30825867 -34.25 91.5 C-33.34251529 94.25956317 -33.08480842 95.99582493 -33 99 C-35.65534485 104.16558148 -40.29181588 107.77632248 -45 111 C-45.66 111 -46.32 111 -47 111 C-58.50018079 95.44433983 -62.08601286 75.77549506 -59.73193359 56.84423828 C-56.65822482 39.34540118 -45.94033462 22.56756639 -31.8671875 11.9140625 C-9.45064466 -3.05065956 -9.45064466 -3.05065956 0 0 Z " fill="#00B56F" transform="translate(323,265)"/>
<path d="M0 0 C6.93 0 13.86 0 21 0 C21 5.94 21 11.88 21 18 C26.94 18 32.88 18 39 18 C39 25.26 39 32.52 39 40 C33.06 40 27.12 40 21 40 C21 45.61 21 51.22 21 57 C14.07 57 7.14 57 0 57 C0 51.39 0 45.78 0 40 C-5.94 40 -11.88 40 -18 40 C-18 32.74 -18 25.48 -18 18 C-12.06 18 -6.12 18 0 18 C0 12.06 0 6.12 0 0 Z " fill="#040404" transform="translate(217,156)"/>
<path d="M0 0 C6.93 0 13.86 0 21 0 C21 5.61 21 11.22 21 17 C26.94 17 32.88 17 39 17 C39 23.93 39 30.86 39 38 C33.06 38 27.12 38 21 38 C21 43.94 21 49.88 21 56 C14.07 56 7.14 56 0 56 C0 50.39 0 44.78 0 39 C-5.94 39 -11.88 39 -18 39 C-18 31.74 -18 24.48 -18 17 C-12.06 17 -6.12 17 0 17 C0 11.39 0 5.78 0 0 Z " fill="#020202" transform="translate(288,157)"/>
<path d="M0 0 C5.2998693 5.03121233 7.7172164 9.49348333 8.3125 16.875 C8.11404529 22.35861702 6.93928511 26.86342832 3.1953125 30.98828125 C-3.40379906 37.00218858 -8.77984176 38.59900739 -17.703125 38.4375 C-23.8257422 37.62501999 -27.47987162 34.6150038 -31.66015625 30.27734375 C-36.07054623 24.49101037 -35.92634198 17.98252114 -35 11 C-33.29331255 4.82580715 -29.39896313 0.36057909 -24 -3 C-15.97844915 -6.55240109 -6.85170471 -5.44202384 0 0 Z M-17 11 C-15.82255415 14.53233755 -15.04394359 14.86308075 -11.9375 16.6875 C-11.20402344 17.12449219 -10.47054688 17.56148437 -9.71484375 18.01171875 C-8.86599609 18.50091797 -8.86599609 18.50091797 -8 19 C-7.67 18.01 -7.34 17.02 -7 16 C-8.46808501 13.18498756 -8.46808501 13.18498756 -11 11 C-14.16848027 10.58190799 -14.16848027 10.58190799 -17 11 Z " fill="#A4AFC1" transform="translate(462,61)"/>
<path d="M0 0 C0.66 0.66 1.32 1.32 2 2 C2.46019531 2.45632813 2.92039062 2.91265625 3.39453125 3.3828125 C4.53246476 4.52905209 5.65328595 5.6923962 6.76171875 6.8671875 C11.71001378 12.02626183 17.02803732 16.0839589 23 20 C17.27372862 22.11113138 11.40687805 19.04354446 6 17 C0.72674657 14.52150634 -3.86368988 12.13631012 -8 8 C-5.36 5.36 -2.72 2.72 0 0 Z " fill="#00B46E" transform="translate(300,383)"/>
<path d="M0 0 C4.59306496 1.4859916 7.43569245 3.85014682 11 7 C10.625 8.9375 10.625 8.9375 10 11 C7.15916359 12.42041821 5.14522722 12.31452272 2 12 C-0.375 10.375 -0.375 10.375 -2 8 C-2.375 4.875 -2.375 4.875 -2 2 C-1.34 1.34 -0.68 0.68 0 0 Z " fill="#EDEDEE" transform="translate(443,73)"/>
</svg>
