<?xml version="1.0" encoding="UTF-8"?>
<svg version="1.1" xmlns="http://www.w3.org/2000/svg" width="700" height="604">
<path d="M0 0 C34.32 0 68.64 0 104 0 C104 34.32 104 68.64 104 104 C90.14 104 76.28 104 62 104 C62 118.52 62 133.04 62 148 C63.65 148.66 65.3 149.32 67 150 C68.71934044 150.89375257 70.42309042 151.81790133 72.11328125 152.765625 C73.10126709 153.31855225 74.08925293 153.87147949 75.10717773 154.44116211 C76.16493408 155.03807861 77.22269043 155.63499512 78.3125 156.25 C79.42117432 156.87334229 80.52984863 157.49668457 81.67211914 158.13891602 C91.13940877 163.47873305 100.53299965 168.94123025 109.91015625 174.4375 C119.46061521 180.03343586 129.06006837 185.54467213 138.65185547 191.06933594 C142.11492701 193.06627117 145.57534783 195.06773242 149.03515625 197.0703125 C150.20261149 197.74556772 151.37009171 198.42077973 152.53759766 199.09594727 C154.72927007 200.36364232 156.92039322 201.63228769 159.11083984 202.90209961 C161.10613104 204.05542213 163.11011558 205.19386081 165.12329102 206.31567383 C168 208 168 208 170.74975586 209.98706055 C173.54523118 211.88536576 175.7164996 213.18147046 179 214 C183.80466386 212.80655765 187.57109939 210.37774607 191.6875 207.6875 C192.76322266 207.03458984 193.83894531 206.38167969 194.94726562 205.70898438 C200.61021958 202.32784081 200.61021958 202.32784081 205.89892578 198.41186523 C212.77224834 192.90792152 222.19665984 194.47828723 230.5 194.6875 C236.275 194.790625 242.05 194.89375 248 195 C248 180.81 248 166.62 248 152 C282.32 152 316.64 152 352 152 C352 186.65 352 221.3 352 257 C317.68 257 283.36 257 248 257 C248 243.47 248 229.94 248 216 C224.16285515 215.36150505 212.30545408 216.92061779 193 231 C191.515 231.99 191.515 231.99 190 233 C189.48410431 235.39036471 189.48410431 235.39036471 189.47773743 238.23345947 C189.4389296 239.34347321 189.40012177 240.45348694 189.36013794 241.59713745 C189.33321869 242.82095123 189.30629944 244.04476501 189.27856445 245.30566406 C189.23957535 246.59044647 189.20058624 247.87522888 189.16041565 249.19894409 C188.81182961 261.07976866 188.6425546 272.96819687 188.51011372 284.85318375 C188.41063354 293.63174377 188.23261742 302.4009399 187.94758064 311.17548203 C187.75370725 317.35475096 187.65338045 323.53149415 187.61986512 329.71368575 C187.59728442 333.40222202 187.53494266 337.07947772 187.37078285 340.76465607 C186.66283858 354.18847784 186.66283858 354.18847784 190 367 C195.85409846 373.3411094 203.56297857 376.86937682 211.49516582 379.97353745 C214 381 214 381 217 383 C220.29770342 383.37032217 220.29770342 383.37032217 224.07421875 383.4140625 C225.32549561 383.44967285 226.57677246 383.4852832 227.8659668 383.52197266 C230.25262573 383.57297119 230.25262573 383.57297119 232.6875 383.625 C237.740625 383.74875 242.79375 383.8725 248 384 C248 370.47 248 356.94 248 343 C282.32 343 316.64 343 352 343 C352 377.65 352 412.3 352 448 C317.68 448 283.36 448 248 448 C248 433.81 248 419.62 248 405 C239.8325 405.433125 239.8325 405.433125 231.5 405.875 C214.48161855 406.28217882 204.42595349 402.79140096 190.45214844 392.74755859 C189.64293945 392.17086426 188.83373047 391.59416992 188 391 C187.18305664 390.41428223 186.36611328 389.82856445 185.52441406 389.22509766 C182.95532503 387.63165678 180.96808348 386.59162087 178 386 C173.80579574 387.10120371 170.56317986 389.33240548 167 391.75 C164.87350822 393.09160854 162.74586398 394.4313918 160.6171875 395.76953125 C159.52631836 396.47287598 158.43544922 397.1762207 157.31152344 397.90087891 C152.01723005 401.25684577 146.57153232 404.33719155 141.125 407.4375 C138.9394296 408.6954433 136.75453676 409.95456453 134.5703125 411.21484375 C133.48524414 411.83987793 132.40017578 412.46491211 131.28222656 413.10888672 C125.8534006 416.23680147 120.42679331 419.36856046 115 422.5 C108.92283836 426.00644483 102.84559527 429.51274701 96.76715088 433.01696777 C95.01658759 434.02619104 93.26609589 435.03553836 91.515625 436.04492188 C89.33607835 437.3016766 87.15640168 438.55820586 84.9765625 439.81445312 C83.97625 440.39130859 82.9759375 440.96816406 81.9453125 441.5625 C80.48786621 442.40167969 80.48786621 442.40167969 79.00097656 443.2578125 C76.87646335 444.4911778 74.75930869 445.73725904 72.64746094 446.9921875 C71.5649707 447.63414062 70.48248047 448.27609375 69.3671875 448.9375 C68.3860498 449.52402344 67.40491211 450.11054688 66.39404297 450.71484375 C64 452 64 452 62 452 C62 466.52 62 481.04 62 496 C75.86 496 89.72 496 104 496 C104 530.32 104 564.64 104 600 C69.68 600 35.36 600 0 600 C0 565.68 0 531.36 0 496 C13.86 496 27.72 496 42 496 C42 481.48 42 466.96 42 452 C40.35 451.34 38.7 450.68 37 450 C35.28065956 449.10624743 33.57690958 448.18209867 31.88671875 447.234375 C30.40473999 446.40498413 30.40473999 446.40498413 28.89282227 445.55883789 C27.83506592 444.96192139 26.77730957 444.36500488 25.6875 443.75 C24.57882568 443.12665771 23.47015137 442.50331543 22.32788086 441.86108398 C12.86059123 436.52126695 3.46700035 431.05876975 -5.91015625 425.5625 C-15.46061521 419.96656414 -25.06006837 414.45532787 -34.65185547 408.93066406 C-38.11492701 406.93372883 -41.57534783 404.93226758 -45.03515625 402.9296875 C-46.20261149 402.25443228 -47.37009171 401.57922027 -48.53759766 400.90405273 C-50.72927007 399.63635768 -52.92039322 398.36771231 -55.11083984 397.09790039 C-57.10352816 395.9460824 -59.10238978 394.80486409 -61.10791016 393.67553711 C-63.06947493 392.53910126 -64.99666568 391.34159406 -66.88818359 390.09204102 C-71.73041913 386.83512521 -71.73041913 386.83512521 -77.30639648 386.32446289 C-79.66031868 387.36276396 -81.63966348 388.5926623 -83.75 390.0625 C-84.43320313 390.49111328 -85.11640625 390.91972656 -85.8203125 391.36132812 C-90.25813091 394.15276347 -90.25813091 394.15276347 -94.56668091 397.13760376 C-105.393717 404.99701965 -113.74014069 406.18292779 -126.9375 405.5625 C-132.568125 405.376875 -138.19875 405.19125 -144 405 C-144 419.19 -144 433.38 -144 448 C-178.32 448 -212.64 448 -248 448 C-248 413.35 -248 378.7 -248 343 C-213.68 343 -179.36 343 -144 343 C-144 356.53 -144 370.06 -144 384 C-120.16285515 384.63849495 -108.30545408 383.07938221 -89 369 C-88.01 368.34 -87.02 367.68 -86 367 C-85.48410431 364.60963529 -85.48410431 364.60963529 -85.47773743 361.76654053 C-85.4389296 360.65652679 -85.40012177 359.54651306 -85.36013794 358.40286255 C-85.33321869 357.17904877 -85.30629944 355.95523499 -85.27856445 354.69433594 C-85.23957535 353.40955353 -85.20058624 352.12477112 -85.16041565 350.80105591 C-84.81182961 338.92023134 -84.6425546 327.03180313 -84.51011372 315.14681625 C-84.41063354 306.36825623 -84.23261742 297.5990601 -83.94758064 288.82451797 C-83.75370725 282.64524904 -83.65338045 276.46850585 -83.61986512 270.28631425 C-83.59728442 266.59777798 -83.53494266 262.92052228 -83.37078285 259.23534393 C-82.66283858 245.81152216 -82.66283858 245.81152216 -86 233 C-91.85409846 226.6588906 -99.56297857 223.13062318 -107.49516582 220.02646255 C-110 219 -110 219 -113 217 C-116.29770342 216.62967783 -116.29770342 216.62967783 -120.07421875 216.5859375 C-121.32549561 216.55032715 -122.57677246 216.5147168 -123.8659668 216.47802734 C-126.25262573 216.42702881 -126.25262573 216.42702881 -128.6875 216.375 C-133.740625 216.25125 -138.79375 216.1275 -144 216 C-144 229.53 -144 243.06 -144 257 C-178.32 257 -212.64 257 -248 257 C-248 222.35 -248 187.7 -248 152 C-213.68 152 -179.36 152 -144 152 C-144 166.19 -144 180.38 -144 195 C-138.555 194.71125 -133.11 194.4225 -127.5 194.125 C-110.48161855 193.71782118 -100.42595349 197.20859904 -86.45214844 207.25244141 C-85.23833496 208.11748291 -85.23833496 208.11748291 -84 209 C-83.18305664 209.58571777 -82.36611328 210.17143555 -81.52441406 210.77490234 C-78.95532503 212.36834322 -76.96808348 213.40837913 -74 214 C-69.80579574 212.89879629 -66.56317986 210.66759452 -63 208.25 C-60.87350822 206.90839146 -58.74586398 205.5686082 -56.6171875 204.23046875 C-55.52631836 203.52712402 -54.43544922 202.8237793 -53.31152344 202.09912109 C-48.01723005 198.74315423 -42.57153232 195.66280845 -37.125 192.5625 C-34.9394296 191.3045567 -32.75453676 190.04543547 -30.5703125 188.78515625 C-29.48524414 188.16012207 -28.40017578 187.53508789 -27.28222656 186.89111328 C-21.8534006 183.76319853 -16.42679331 180.63143954 -11 177.5 C-4.92283836 173.99355517 1.15440473 170.48725299 7.23284912 166.98303223 C8.98341241 165.97380896 10.73390411 164.96446164 12.484375 163.95507812 C14.66392165 162.6983234 16.84359832 161.44179414 19.0234375 160.18554688 C20.02375 159.60869141 21.0240625 159.03183594 22.0546875 158.4375 C23.51213379 157.59832031 23.51213379 157.59832031 24.99902344 156.7421875 C27.12353665 155.5088222 29.24069131 154.26274096 31.35253906 153.0078125 C32.4350293 152.36585938 33.51751953 151.72390625 34.6328125 151.0625 C35.6139502 150.47597656 36.59508789 149.88945312 37.60595703 149.28515625 C40 148 40 148 42 148 C42 133.48 42 118.96 42 104 C28.14 104 14.28 104 0 104 C0 69.68 0 35.36 0 0 Z M20 20 C20 41.12 20 62.24 20 84 C41.12 84 62.24 84 84 84 C84 62.88 84 41.76 84 20 C62.88 20 41.76 20 20 20 Z M45.34375 168.5 C44.41820312 169.04914063 43.49265625 169.59828125 42.5390625 170.1640625 C41.53617187 170.76992187 40.53328125 171.37578125 39.5 172 C37.32371031 173.29300341 35.1465933 174.5846151 32.96875 175.875 C32.40196533 176.21208984 31.83518066 176.54917969 31.2512207 176.89648438 C25.46336924 180.33426506 19.61868703 183.66954565 13.76629639 186.99588013 C3.46788857 192.85041056 -6.79241448 198.76729273 -17.01416016 204.75488281 C-22.39706502 207.9059838 -27.79156671 211.03517763 -33.203125 214.13671875 C-33.8036972 214.48134659 -34.40426941 214.82597443 -35.02304077 215.18104553 C-37.9470265 216.85887723 -40.87260937 218.53369478 -43.80126953 220.20336914 C-45.36530518 221.10043579 -45.36530518 221.10043579 -46.9609375 222.015625 C-48.34998291 222.80888184 -48.34998291 222.80888184 -49.76708984 223.61816406 C-52.09138887 224.93860315 -52.09138887 224.93860315 -54 227 C-39.17185365 235.81533526 -24.26798854 244.49207588 -9.31445312 253.09277344 C-3.87349441 256.22364921 1.56307379 259.36212859 7 262.5 C13.13708566 266.04125607 19.27437763 269.58215112 25.4133606 273.12011719 C27.80426597 274.49806938 30.19498672 275.87634172 32.58569336 277.25463867 C34.26983963 278.22540982 35.95425231 279.19571874 37.63867188 280.16601562 C38.66154297 280.75576172 39.68441406 281.34550781 40.73828125 281.953125 C41.63587158 282.47036133 42.53346191 282.98759766 43.45825195 283.52050781 C46 285 46 285 48.51635742 286.81542969 C50.94294239 288.29863856 50.94294239 288.29863856 53.49291992 287.36035156 C54.73392456 286.68697754 54.73392456 286.68697754 56 286 C56.81895752 285.57428711 57.63791504 285.14857422 58.48168945 284.70996094 C59.35011475 284.22301758 60.21854004 283.73607422 61.11328125 283.234375 C62.10126709 282.68144775 63.08925293 282.12852051 64.10717773 281.55883789 C65.16493408 280.96192139 66.22269043 280.36500488 67.3125 279.75 C68.42117432 279.12665771 69.52984863 278.50331543 70.67211914 277.86108398 C80.13940877 272.52126695 89.53299965 267.05876975 98.91015625 261.5625 C105.21570837 257.86786445 111.54323062 254.21197583 117.875 250.5625 C118.93702637 249.94938965 119.99905273 249.3362793 121.09326172 248.70458984 C126.230424 245.74063386 131.37190509 242.78471113 136.52557373 239.8495636 C138.95442297 238.46557833 141.3810307 237.07769043 143.80743408 235.68942261 C145.53267047 234.70452892 147.26118286 233.72538094 148.98974609 232.74633789 C150.54363037 231.85676392 150.54363037 231.85676392 152.12890625 230.94921875 C153.04744385 230.42674561 153.96598145 229.90427246 154.91235352 229.3659668 C157.12590097 228.167857 157.12590097 228.167857 158 226 C157.36835938 225.64921387 156.73671875 225.29842773 156.0859375 224.93701172 C142.33297865 217.29014861 128.66630949 209.51909961 115.08984375 201.5625 C108.78429504 197.86786645 102.45700396 194.21156403 96.125 190.5625 C95.06152344 189.94938965 93.99804688 189.3362793 92.90234375 188.70458984 C87.77793486 185.751109 82.65230659 182.79975061 77.52600098 179.8495636 C75.11782525 178.46340262 72.71009301 177.07647251 70.3024292 175.68942261 C68.59741766 174.70760702 66.8917333 173.72696016 65.18603516 172.74633789 C63.64181885 171.85676392 63.64181885 171.85676392 62.06640625 170.94921875 C60.7043103 170.16550903 60.7043103 170.16550903 59.31469727 169.3659668 C57.50873799 168.30022034 55.74478871 167.16319248 54 166 C49.80239732 166 48.79614589 166.42469888 45.34375 168.5 Z M-228 172 C-228 193.45 -228 214.9 -228 237 C-206.88 237 -185.76 237 -164 237 C-164 215.55 -164 194.1 -164 172 C-185.12 172 -206.24 172 -228 172 Z M268 172 C268 193.45 268 214.9 268 237 C289.12 237 310.24 237 332 237 C332 215.55 332 194.1 332 172 C310.88 172 289.76 172 268 172 Z M-65 245 C-65.30408891 260.76818839 -65.53311679 276.53558181 -65.67355824 292.30597687 C-65.74051147 299.62913694 -65.83172813 306.95047243 -65.98071289 314.27246094 C-66.11055534 320.65674365 -66.19421551 327.03970514 -66.22315043 333.42527151 C-66.24006062 336.80526467 -66.27958135 340.18147952 -66.37449074 343.56025696 C-67.39489814 356.68894059 -67.39489814 356.68894059 -63.76753807 368.87556076 C-60.35597424 372.16526695 -56.46227199 373.50213484 -52 375 C-49.79289037 376.22146239 -47.6056193 377.48015458 -45.44921875 378.7890625 C-43.19638318 380.06959382 -40.94244231 381.34818218 -38.6875 382.625 C-36.21129555 384.03219835 -33.7363197 385.44154656 -31.26171875 386.8515625 C-30.64569794 387.20244934 -30.02967712 387.55333618 -29.39498901 387.91485596 C-23.57259618 391.23551847 -17.78321982 394.61161946 -12 398 C-1.96977846 403.8738887 8.11021988 409.65672227 18.2109375 415.40820312 C19.31179688 416.03533203 20.41265625 416.66246094 21.546875 417.30859375 C22.61357422 417.91558105 23.68027344 418.52256836 24.77929688 419.14794922 C29.0958025 421.63013627 33.37361073 424.17651416 37.64550781 426.73461914 C39.84811971 428.15779902 39.84811971 428.15779902 42 428 C42.39795584 412.26668988 42.69728903 396.53474736 42.88080692 380.79764748 C42.96830447 373.48952192 43.08745644 366.18453051 43.2824707 358.87841797 C43.45246615 352.50655896 43.56170825 346.13696903 43.59950441 339.76290548 C43.62159178 336.38947811 43.67303459 333.022538 43.79741096 329.65120316 C44.8680227 316.11883742 44.8680227 316.11883742 40.35508537 303.91821289 C36.36800458 300.53657273 31.98250415 298.54226342 27.09192848 296.79570484 C23.98869911 295.61533244 21.32397583 293.96827166 18.49609375 292.234375 C16.4769131 291.07230725 14.45737808 289.91085506 12.4375 288.75 C3.98295284 283.88292285 -4.455329 278.98964499 -12.875 274.0625 C-23.00408651 268.13667451 -33.18378716 262.30247133 -43.38623047 256.50415039 C-49.34526572 253.11193078 -55.25569116 249.67070716 -61.07861328 246.04882812 C-62.9277456 244.84028886 -62.9277456 244.84028886 -65 245 Z M162.03125 247.75390625 C160.99871094 248.35332031 159.96617187 248.95273438 158.90234375 249.5703125 C157.21818359 250.55644531 157.21818359 250.55644531 155.5 251.5625 C154.32448406 252.24654988 153.14869853 252.93013667 151.97265625 253.61328125 C149.52629074 255.03482132 147.08110537 256.45836082 144.63671875 257.88330078 C139.10195007 261.10757154 133.55018668 264.3023703 128 267.5 C125.8332519 268.74985884 123.66658552 269.99985936 121.5 271.25 C108.5 278.75 108.5 278.75 105.24389648 280.62841797 C103.09745541 281.86681771 100.95113196 283.10542135 98.80493164 284.34423828 C93.69997994 287.29055356 88.59379033 290.23466458 83.48348999 293.17169189 C81.05339448 294.56849807 78.62396065 295.96645278 76.19458008 297.36450195 C74.46695585 298.35805992 72.7383688 299.34994309 71.00976562 300.34179688 C69.97400391 300.93798828 68.93824219 301.53417969 67.87109375 302.1484375 C66.95255615 302.67614746 66.03401855 303.20385742 65.08764648 303.74755859 C63.08479141 304.8343467 63.08479141 304.8343467 62 306 C61.90405775 307.58154848 61.8781204 309.16739125 61.87974548 310.75184631 C61.87837082 311.77974777 61.87699615 312.80764923 61.87557983 313.86669922 C61.87917511 315.00389404 61.88277039 316.14108887 61.88647461 317.31274414 C61.88632858 318.50282578 61.88618256 319.69290741 61.8860321 320.91905212 C61.88661106 324.19163274 61.89164019 327.46417107 61.89860606 330.73674321 C61.90484033 334.15338665 61.90544346 337.57003083 61.90663147 340.98667908 C61.90974457 347.46069267 61.91795767 353.93468946 61.92798096 360.40869564 C61.93914275 367.7773792 61.94465271 375.14606355 61.94967639 382.51475346 C61.96014031 397.67651169 61.97773934 412.83825417 62 428 C65.93195472 426.7282356 69.36655837 425.38267032 72.921875 423.26953125 C73.85112793 422.72176025 74.78038086 422.17398926 75.73779297 421.60961914 C76.73182129 421.01656982 77.72584961 420.42352051 78.75 419.8125 C80.91367549 418.53580222 83.07775166 417.25978329 85.2421875 415.984375 C86.91619629 414.9953418 86.91619629 414.9953418 88.62402344 413.98632812 C94.02126384 410.81074612 99.44766651 407.68628131 104.875 404.5625 C107.05729858 403.30469949 109.2395902 402.04688692 111.421875 400.7890625 C114.7115029 398.89405701 118.00125929 396.9992747 121.29101562 395.10449219 C133.39386372 388.13259009 145.49012928 381.14956659 157.5625 374.125 C158.59842285 373.52357178 159.6343457 372.92214355 160.70166016 372.30249023 C161.64702637 371.75149658 162.59239258 371.20050293 163.56640625 370.6328125 C164.40115479 370.14699707 165.23590332 369.66118164 166.09594727 369.16064453 C167.93846097 368.14011742 167.93846097 368.14011742 169 367 C169.09594225 365.41845152 169.1218796 363.83260875 169.12025452 362.24815369 C169.12162918 361.22025223 169.12300385 360.19235077 169.12442017 359.13330078 C169.12082489 357.99610596 169.11722961 356.85891113 169.11352539 355.68725586 C169.11367142 354.49717422 169.11381744 353.30709259 169.1139679 352.08094788 C169.11338894 348.80836726 169.10835981 345.53582893 169.10139394 342.26325679 C169.09515967 338.84661335 169.09455654 335.42996917 169.09336853 332.01332092 C169.09025543 325.53930733 169.08204233 319.06531054 169.07201904 312.59130436 C169.06085725 305.2226208 169.05534729 297.85393645 169.05032361 290.48524654 C169.03985969 275.32348831 169.02226066 260.16174583 169 245 C166.12340442 245 164.51241452 246.30604957 162.03125 247.75390625 Z M-228 363 C-228 384.45 -228 405.9 -228 428 C-206.88 428 -185.76 428 -164 428 C-164 406.55 -164 385.1 -164 363 C-185.12 363 -206.24 363 -228 363 Z M268 363 C268 384.45 268 405.9 268 428 C289.12 428 310.24 428 332 428 C332 406.55 332 385.1 332 363 C310.88 363 289.76 363 268 363 Z M20 516 C20 537.12 20 558.24 20 580 C41.12 580 62.24 580 84 580 C84 558.88 84 537.76 84 516 C62.88 516 41.76 516 20 516 Z " fill="#0A0A0A" transform="translate(298,0)"/>
<path d="M0 0 C7.26 0 14.52 0 22 0 C22 6.93 22 13.86 22 21 C14.74 21 7.48 21 0 21 C0 14.07 0 7.14 0 0 Z " fill="#191919" transform="translate(534,506)"/>
<path d="M0 0 C7.26 0 14.52 0 22 0 C22 6.93 22 13.86 22 21 C14.74 21 7.48 21 0 21 C0 14.07 0 7.14 0 0 Z " fill="#191919" transform="translate(144,506)"/>
<path d="M0 0 C7.26 0 14.52 0 22 0 C22 6.93 22 13.86 22 21 C14.74 21 7.48 21 0 21 C0 14.07 0 7.14 0 0 Z " fill="#191919" transform="translate(534,73)"/>
<path d="M0 0 C7.26 0 14.52 0 22 0 C22 6.93 22 13.86 22 21 C14.74 21 7.48 21 0 21 C0 14.07 0 7.14 0 0 Z " fill="#191919" transform="translate(144,73)"/>
</svg>
