<?xml version="1.0" encoding="UTF-8"?>
<svg version="1.1" xmlns="http://www.w3.org/2000/svg" width="600" height="600">
<path d="M0 0 C1.42501188 1.24047797 2.84201757 2.49022624 4.25 3.75 C5.05308594 4.3584375 5.85617188 4.966875 6.68359375 5.59375 C21.6883752 18.20050701 30.02527078 37.91605908 33 56.875 C34.60010143 81.67657217 28.64388076 103.62658691 12.5 122.9375 C12.02804199 123.50275391 11.55608398 124.06800781 11.06982422 124.65039062 C8.83838064 127.23022321 7.54416315 128.65194562 4.25 129.75 C9.52886455 137.824579 14.99883457 145.76340943 20.5 153.6875 C21.54607422 155.19775757 21.54607422 155.19775757 22.61328125 156.73852539 C23.28230469 157.70008545 23.95132813 158.66164551 24.640625 159.65234375 C25.23907227 160.51335693 25.83751953 161.37437012 26.45410156 162.26147461 C28.30632929 164.8280539 30.25298742 167.29494945 32.25 169.75 C33.20777344 169.29109375 34.16554687 168.8321875 35.15234375 168.359375 C58.81240623 157.31038768 84.0413381 154.93645548 109.25 162.75 C111.58246391 163.41970219 113.91568696 164.0867719 116.25 164.75 C116.70213867 163.89583496 117.15427734 163.04166992 117.62011719 162.16162109 C126.24733954 145.86868076 134.90722584 129.59769846 143.77783203 113.43554688 C146.52721247 108.42009334 149.26243289 103.39690803 152 98.375 C153.01557054 96.51299113 154.03119017 94.65100903 155.046875 92.7890625 C155.47323242 92.00740723 155.89958984 91.22575195 156.33886719 90.42041016 C156.78987793 89.59355713 156.78987793 89.59355713 157.25 88.75 C156.49460937 87.9971875 155.73921875 87.244375 154.9609375 86.46875 C144.03496852 75.51129408 136.15837983 63.47755392 135.86938477 47.59545898 C135.90467505 31.67647303 139.47471466 18.88824977 150.5625 6.9375 C162.4489103 -4.15294532 176.61687819 -7.77487402 192.33984375 -7.5234375 C206.74334919 -6.9646689 218.51769146 0.16259268 228.30078125 10.40234375 C231.32298568 14.04231341 235.25 18.82018617 235.25 23.75 C236.14831543 23.53794922 237.04663086 23.32589844 237.97216797 23.10742188 C241.30020616 22.32293418 244.62869782 21.54043072 247.95751953 20.75927734 C249.39911334 20.42055638 250.84052092 20.08104181 252.28173828 19.74072266 C254.35140499 19.25215027 256.42172111 18.76642073 258.4921875 18.28125 C259.7385498 17.98798828 260.98491211 17.69472656 262.26904297 17.39257812 C265.25 16.75 265.25 16.75 267.25 16.75 C267.36214844 15.62464844 267.36214844 15.62464844 267.4765625 14.4765625 C268.82515756 3.97867543 272.63183041 -4.07329879 281 -10.77734375 C289.82607213 -16.55413054 299.48091656 -17.60535412 309.7578125 -15.8125 C318.67271726 -13.32750913 325.37951699 -7.22054254 330.09765625 0.58203125 C334.26598823 8.42414735 334.5666006 18.00268359 332.59765625 26.59765625 C329.14073282 36.1969243 322.18805517 43.04086868 313.25 47.75 C304.3559153 51.30080541 294.95171193 50.38939524 286.25 46.75 C279.65667541 43.24064981 276.29208781 39.63243578 271.25 33.75 C261.35 36.06 251.45 38.37 241.25 40.75 C240.87875 44.3696875 240.87875 44.3696875 240.5 48.0625 C238.74627822 62.87153932 232.94537047 76.09403577 221.25 85.75 C210.91179312 93.07148422 200.45956182 96.92651211 187.8125 96.9375 C187.07451172 96.94974609 186.33652344 96.96199219 185.57617188 96.97460938 C181.07173378 96.98662121 177.49375737 96.45153822 173.25 94.75 C172.98227783 95.61898926 172.71455566 96.48797852 172.4387207 97.38330078 C171.27728895 100.67271215 169.88925322 103.55231913 168.23046875 106.6171875 C167.32518433 108.29820557 167.32518433 108.29820557 166.40161133 110.01318359 C165.74701847 111.21718271 165.09231189 112.42112 164.4375 113.625 C163.7596002 114.87949882 163.08211563 116.1342221 162.4050293 117.38916016 C160.68509917 120.57436297 158.95968017 123.75655589 157.23278809 126.93798828 C155.74802785 129.67550921 154.26865975 132.41593593 152.7890625 135.15625 C145.64699712 148.374624 138.45343138 161.56499006 131.25 174.75 C132.39311646 175.16862305 132.39311646 175.16862305 133.55932617 175.59570312 C137.1738187 177.14631747 139.74135012 179.58223222 142.5625 182.25 C143.13572998 182.78898926 143.70895996 183.32797852 144.29956055 183.88330078 C156.71260363 195.75208102 164.68123358 209.63270489 170.25 225.75 C170.85996826 225.62882813 171.46993652 225.50765625 172.09838867 225.3828125 C174.87715335 224.83365996 177.65728626 224.29176647 180.4375 223.75 C181.39720703 223.55921875 182.35691406 223.3684375 183.34570312 223.171875 C184.27705078 222.99140625 185.20839844 222.8109375 186.16796875 222.625 C187.44837036 222.37363281 187.44837036 222.37363281 188.75463867 222.1171875 C191.29045103 221.74404771 193.69081397 221.68587004 196.25 221.75 C196.20359375 220.491875 196.1571875 219.23375 196.109375 217.9375 C195.46910081 192.95454071 203.01778478 171.84284659 220.4375 153.4140625 C230.02808028 144.32965173 240.87189132 138.22851168 253.25 133.75 C254.23613281 133.3890625 255.22226562 133.028125 256.23828125 132.65625 C277.58124151 126.41798286 301.46593835 130.27170387 320.68359375 140.671875 C325.2572142 143.26619077 329.29657495 146.29075308 333.25 149.75 C333.91 150.26820313 334.57 150.78640625 335.25 151.3203125 C350.64327277 163.76721666 358.82494902 182.66197538 362.25 201.75 C364.10943009 227.05876713 358.75218006 249.0696223 342.25 268.75 C328.88311642 284.17332721 309.67750612 294.72506135 289.25 296.75 C266.20024102 298.34553338 244.55650018 293.39034431 226.25 278.75 C213.58543928 267.71969624 204.60596884 254.81790652 199.25 238.75 C198.60450195 238.87117187 197.95900391 238.99234375 197.29394531 239.1171875 C194.36330957 239.66516686 191.4316805 240.20763911 188.5 240.75 C186.97632813 241.03617187 186.97632813 241.03617187 185.421875 241.328125 C183.95234375 241.59882812 183.95234375 241.59882812 182.453125 241.875 C181.55239258 242.04257812 180.65166016 242.21015625 179.72363281 242.3828125 C177.25 242.75 177.25 242.75 173.25 242.75 C173.26571045 243.3076001 173.2814209 243.8652002 173.29760742 244.43969727 C173.81940535 265.87304271 170.11613524 283.51560617 160.25 302.75 C170.35723017 310.49771315 180.47533021 318.22509008 190.75 325.75 C199.42652069 332.10601331 207.98311161 338.61220474 216.52734375 345.14453125 C220.97815041 348.54696056 225.45565141 351.91073982 229.9453125 355.26171875 C232.78698598 357.39251045 235.60852704 359.54917037 238.4296875 361.70703125 C239.36554688 362.42246094 240.30140625 363.13789063 241.265625 363.875 C243.13403902 365.30438777 245.00127868 366.73531226 246.8671875 368.16796875 C251.24218416 371.51432036 255.61396582 374.77406386 260.25 377.75 C263.52764516 376.2143201 266.43448825 374.32750788 269.4375 372.3125 C280.98595675 364.90608974 293.94096371 363.16495447 307.4765625 365.24609375 C321.94205904 368.5540949 332.84543307 376.32605922 341.71484375 388.21484375 C349.29595156 400.73428133 351.18407541 415.21757789 348.56640625 429.47265625 C344.53632707 443.50268292 336.60382499 454.66825021 324.1015625 462.2109375 C311.36370239 469.08589213 297.86990836 470.74836985 283.6171875 468.06640625 C273.86518137 464.99821633 265.74459575 459.59289177 258.25 452.75 C250.23889755 455.72973933 241.21585065 459.46157917 235.25 465.75 C233.19695258 470.54740347 233.87770918 475.73334984 234.21240234 480.82470703 C234.35829205 488.29539696 229.425951 494.59894697 224.5390625 499.76953125 C216.84444392 506.4268207 208.59212328 508.14139234 198.69921875 508.01953125 C190.1533234 507.35173195 183.40890432 504.08593451 177.26171875 498.1484375 C171.38809556 491.14571005 167.85208765 482.94619653 168.25 473.75 C169.16609889 464.78043473 172.40156072 455.91526164 179.25 449.75 C187.58061443 443.73584313 195.89357939 440.63732671 206.25 441.75 C212.45090484 443.03521023 217.04378657 445.11775807 222.25 448.75 C225.21295701 449.71416814 226.6377894 450.01529781 229.5300293 448.76196289 C230.28711182 448.2539917 231.04419434 447.74602051 231.82421875 447.22265625 C232.65630859 446.67802734 233.48839844 446.13339844 234.34570312 445.57226562 C235.20099609 444.99154297 236.05628906 444.41082031 236.9375 443.8125 C238.64731902 442.67473939 240.3594466 441.54043797 242.07421875 440.41015625 C242.82791748 439.90105713 243.58161621 439.39195801 244.3581543 438.86743164 C246.25 437.75 246.25 437.75 248.25 437.75 C247.92515625 436.74646484 247.92515625 436.74646484 247.59375 435.72265625 C244.21278794 424.06146767 243.61211221 411.75894948 247.49609375 400.14453125 C248.3690913 397.37174628 248.8219226 394.62185905 249.25 391.75 C248.78440674 391.4096875 248.31881348 391.069375 247.83911133 390.71875 C238.40782657 383.81708243 229.03030408 376.85367769 219.75 369.75 C213.13055046 364.68345594 206.47497019 359.67564706 199.75 354.75 C192.13820602 349.17480642 184.62411697 343.48092904 177.13208008 337.74609375 C168.25653276 330.96481397 159.2673831 324.34100644 150.25 317.75 C147.32570136 319.14563703 145.50947705 320.37227354 143.375 322.8125 C138.12587141 328.20774995 131.68445614 331.94438626 125.25 335.75 C123.81140625 336.60658203 123.81140625 336.60658203 122.34375 337.48046875 C103.33130405 347.86788655 80.22442482 350.05244612 59.25 345.75 C59.14595856 346.3361911 59.04191711 346.9223822 58.9347229 347.52633667 C57.65986796 354.32475846 55.82914484 360.84574599 53.7734375 367.4453125 C53.44332672 368.51876923 53.11321594 369.59222595 52.77310181 370.69821167 C51.72832322 374.0919096 50.67678034 377.48346634 49.625 380.875 C48.91100842 383.18996545 48.19746235 385.50506836 47.484375 387.8203125 C45.74473031 393.4651409 43.99954251 399.10823195 42.25 404.75 C43.39525146 405.40299072 44.54050293 406.05598145 45.72045898 406.72875977 C47.25004706 407.61177858 48.77941353 408.49518132 50.30859375 409.37890625 C51.06023804 409.80610962 51.81188232 410.23331299 52.58630371 410.67346191 C70.96494092 421.34252195 84.44723079 439.45934035 90.17626953 459.9128418 C95.72300168 481.87991426 93.40059115 505.55938009 81.84765625 525.296875 C79.22201087 529.32842829 76.33267272 533.06034084 73.25 536.75 C72.72921875 537.41644531 72.2084375 538.08289063 71.671875 538.76953125 C59.62259267 553.59716752 40.100739 563.38813926 21.25 565.75 C7.40157373 566.54039769 -5.56100257 566.27024264 -18.75 561.75 C-19.80058594 561.399375 -20.85117188 561.04875 -21.93359375 560.6875 C-30.0664229 557.64165501 -36.87832771 552.94675876 -43.75 547.75 C-44.49121094 547.19570313 -45.23242188 546.64140625 -45.99609375 546.0703125 C-61.13201983 533.82757148 -71.35400344 513.87318746 -73.75 494.75 C-74.54013049 480.90625542 -74.27806617 467.9333533 -69.75 454.75 C-69.20666016 453.15671875 -69.20666016 453.15671875 -68.65234375 451.53125 C-60.58329422 430.30554682 -44.16831317 414.96995743 -23.92578125 405.51171875 C-8.26688748 398.63289919 8.56287621 397.46292224 25.25 400.75 C25.38317627 400.15783691 25.51635254 399.56567383 25.65356445 398.95556641 C28.36494472 387.52297167 31.97597489 376.34713847 35.4375 365.125 C36.7258572 360.94628811 38.01046769 356.76644984 39.29296875 352.5859375 C39.5897905 351.62771088 39.88661224 350.66948425 40.19242859 349.68222046 C40.46303604 348.80014923 40.73364349 347.918078 41.01245117 347.00927734 C41.25211105 346.23272797 41.49177094 345.45617859 41.73869324 344.65609741 C42.33636276 342.75696291 42.33636276 342.75696291 42.25 340.75 C40.60064453 339.93208984 40.60064453 339.93208984 38.91796875 339.09765625 C29.76456244 334.4664994 21.82429658 329.74456672 14.25 322.75 C13.19619141 321.81607422 13.19619141 321.81607422 12.12109375 320.86328125 C3.77408102 313.07164705 -2.06518499 303.48665007 -7.03125 293.3125 C-7.39250977 292.58095703 -7.75376953 291.84941406 -8.12597656 291.09570312 C-9.00437601 289.31563538 -9.87772621 287.53307746 -10.75 285.75 C-11.88542236 286.05292969 -13.02084473 286.35585938 -14.19067383 286.66796875 C-18.39964604 287.78987225 -22.60989829 288.90690398 -26.82055664 290.02246094 C-28.64350155 290.50615569 -30.46609562 290.99117465 -32.28833008 291.47753906 C-34.90615404 292.17600557 -37.52519871 292.86971538 -40.14453125 293.5625 C-41.36811089 293.89060669 -41.36811089 293.89060669 -42.6164093 294.2253418 C-45.73643656 295.04664622 -48.50884823 295.75 -51.75 295.75 C-51.70359375 296.60980469 -51.6571875 297.46960938 -51.609375 298.35546875 C-51.14450279 313.58003376 -55.70256184 326.75120151 -66.0078125 338.09765625 C-78.0226342 349.49287952 -91.97162807 353.28978183 -108.09375 353.02734375 C-121.09050944 352.49551381 -133.81170207 346.17430468 -142.75 336.75 C-153.89112666 323.32289702 -157.07212046 308.79353608 -155.75 291.75 C-153.41383223 278.47887828 -146.07190564 267.28449296 -135.75 258.75 C-133.12484958 257.01230298 -130.45310017 255.36330783 -127.75 253.75 C-127.96205078 253.00314941 -128.17410156 252.25629883 -128.39257812 251.48681641 C-129.34774481 248.11696737 -130.29892126 244.74600495 -131.25 241.375 C-131.58386719 240.199375 -131.91773438 239.02375 -132.26171875 237.8125 C-132.57753906 236.69101562 -132.89335937 235.56953125 -133.21875 234.4140625 C-133.51201172 233.37717285 -133.80527344 232.3402832 -134.10742188 231.27197266 C-134.75 228.75 -134.75 228.75 -134.75 226.75 C-135.35585937 226.73582031 -135.96171875 226.72164062 -136.5859375 226.70703125 C-146.72411501 226.12993499 -154.13779154 222.26726419 -161.05859375 214.87109375 C-168.05382605 206.09878165 -168.54977027 196.60885271 -167.75 185.75 C-166.89572395 182.37194841 -165.61154695 179.68352136 -163.75 176.75 C-163.07904297 175.68845703 -163.07904297 175.68845703 -162.39453125 174.60546875 C-157.22332486 167.13286756 -150.72824693 162.51844258 -141.75 160.75 C-130.87380191 159.61821289 -121.57757066 161.32640415 -112.9375 168.25 C-106.09241808 174.8738764 -101.9440131 183.40307341 -101.5859375 192.9609375 C-102.16903297 202.87356055 -105.36182954 211.32361556 -112.40234375 218.4140625 C-116.21351257 221.75 -116.21351257 221.75 -118.75 221.75 C-118.34007812 222.94496094 -117.93015625 224.13992187 -117.5078125 225.37109375 C-116.96329582 226.97647913 -116.4190389 228.58195264 -115.875 230.1875 C-115.60558594 230.97060547 -115.33617187 231.75371094 -115.05859375 232.56054688 C-113.25347132 237.90987311 -111.89033641 243.21992196 -110.75 248.75 C-109.81800781 248.70359375 -108.88601562 248.6571875 -107.92578125 248.609375 C-93.54604109 248.20226406 -80.31526747 251.57503681 -69.0546875 261.0078125 C-63.42141283 266.37203525 -59.59850697 272.03373725 -55.75 278.75 C-54.57904785 278.44707031 -53.4080957 278.14414062 -52.20166016 277.83203125 C-47.86748623 276.71144005 -43.53250333 275.59400708 -39.19726562 274.47753906 C-37.31911261 273.99337851 -35.44118173 273.50835547 -33.56347656 273.02246094 C-30.86841485 272.32521688 -28.17257614 271.63105285 -25.4765625 270.9375 C-24.21243027 270.60939331 -24.21243027 270.60939331 -22.92276001 270.2746582 C-16.97774341 268.75 -16.97774341 268.75 -14.75 268.75 C-14.90984375 267.76902344 -15.0696875 266.78804688 -15.234375 265.77734375 C-18.5701277 242.20824 -12.52310585 217.80899011 0.97265625 198.25390625 C2.66978848 196.02327915 4.42538116 193.87742792 6.25 191.75 C6.95898438 190.91984375 7.66796875 190.0896875 8.3984375 189.234375 C13.88997214 182.93001393 13.88997214 182.93001393 16.25 181.75 C15.63095411 178.58152636 14.56629281 176.44478955 12.73046875 173.80078125 C12.20799561 173.0425708 11.68552246 172.28436035 11.1472168 171.50317383 C10.30090698 170.29504028 10.30090698 170.29504028 9.4375 169.0625 C8.86233643 168.23194092 8.28717285 167.40138184 7.69458008 166.5456543 C5.88742652 163.9416262 4.07055208 161.34467572 2.25 158.75 C1.65960938 157.90824219 1.06921875 157.06648437 0.4609375 156.19921875 C-2.9288625 151.372934 -6.33364531 146.55751894 -9.75 141.75 C-10.26796143 141.95157715 -10.78592285 142.1531543 -11.31958008 142.36083984 C-36.08949143 151.93234482 -60.47711179 154.82565184 -85.47216797 144.01293945 C-93.09379847 140.52802156 -99.49347939 136.36984923 -105.75 130.75 C-106.78125 129.96625 -107.8125 129.1825 -108.875 128.375 C-125.40682354 113.28072633 -133.36690072 92.1133899 -134.93359375 70.1796875 C-135.57803332 47.20731219 -127.15683462 25.61835253 -111.75 8.75 C-83.12109976 -20.87903649 -32.64352005 -25.92137296 0 0 Z M-94.75 17.75 C-95.3996875 18.30816406 -96.049375 18.86632812 -96.71875 19.44140625 C-108.17186512 29.99148729 -116.27781795 46.205574 -116.98828125 61.8671875 C-117.4517968 81.67516937 -112.41122972 98.88114776 -98.75 113.75 C-86.85202424 126.00380307 -71.11294591 133.66202953 -53.96118164 134.04272461 C-33.74385541 134.19731759 -16.48008764 128.12136404 -1.75 113.75 C10.62504078 99.81097302 17.09556411 83.07538798 16.59375 64.3828125 C14.81038733 45.53591157 6.36022697 27.66707634 -8.37109375 15.47265625 C-19.53369323 7.38939456 -31.83657477 1.67756168 -45.75 0.75 C-46.38421875 0.6984375 -47.0184375 0.646875 -47.671875 0.59375 C-64.70471577 -0.17464883 -82.07499892 6.42891949 -94.75 17.75 Z M286.875 7.5 C284.20425916 12.84148169 283.62155439 16.69009495 285.375 22.4375 C287.8036833 26.72817382 290.28475077 29.66394122 294.625 32.0625 C299.22709435 33.26781043 302.88738165 33.2405426 307.375 31.625 C312.12941493 28.52429461 315.04516188 25.21024823 316.6875 19.8125 C317.75025142 14.50886433 316.37435629 10.5168456 313.5 6 C309.69227432 2.19227432 306.15791594 0.5852253 300.8125 0.3125 C294.67243356 0.55024668 290.92531196 2.81016509 286.875 7.5 Z M160.3046875 21.97265625 C154.26641412 29.9436824 151.29733852 38.74705448 152.25 48.75 C154.60638632 60.13006728 160.12745166 68.25702109 169.625 74.9375 C177.75966069 80.11652293 185.76501127 80.59592988 195.25 79.75 C204.59217944 77.49454927 212.4680994 71.86799622 217.9296875 64.00390625 C223.13665978 55.11508079 224.95753778 45.92549583 222.5546875 35.828125 C219.27455529 25.8499077 213.18438476 17.89261947 204.14453125 12.4921875 C189.13475353 5.30157372 171.08595242 9.65430336 160.3046875 21.97265625 Z M236.25 162.75 C235.41210938 163.37777344 234.57421875 164.00554687 233.7109375 164.65234375 C220.8574106 175.60844525 214.01186893 192.49988991 212.375 208.9375 C211.49061648 227.06736223 217.70925632 244.62728685 229.53515625 258.4140625 C241.17778678 270.62867646 256.89315632 279.25830077 273.9765625 280.0859375 C293.55755899 280.44836517 310.50764735 275.81993477 325.06738281 262.07983398 C332.82439988 254.41256108 338.37499444 245.9218896 342.25 235.75 C342.5696875 234.97011719 342.889375 234.19023437 343.21875 233.38671875 C348.49827547 218.06142953 346.1930796 199.85272023 339.7421875 185.36328125 C335.94614576 177.76236977 331.27569873 171.70408602 325.25 165.75 C324.21939453 164.68652344 324.21939453 164.68652344 323.16796875 163.6015625 C310.89264058 151.71339681 294.14934092 146.74239315 277.34814453 146.6796875 C261.70547187 147.20390087 248.38576639 153.1065711 236.25 162.75 Z M30.25 191.75 C29.53457031 192.28109375 28.81914062 192.8121875 28.08203125 193.359375 C13.30421044 205.27602092 3.76760788 224.07670806 1.25 242.75 C0.08164137 255.30026813 1.38168346 266.79582737 5.25 278.75 C5.53875 279.67039062 5.8275 280.59078125 6.125 281.5390625 C12.96163618 300.76710176 28.87910964 315.43659267 46.875 324.125 C65.37668617 332.19155641 85.26640405 333.09745306 104.4375 326.68359375 C125.76533 318.26909832 140.87399636 304.225661 150.70703125 283.45703125 C158.45691979 265.4405623 158.759342 245.17053377 152.25 226.75 C151.816875 225.40615234 151.816875 225.40615234 151.375 224.03515625 C144.89480397 205.72281657 130.28776621 191.91436064 113.5 183 C85.45527036 169.63374148 54.90829157 173.19235242 30.25 191.75 Z M-149.1875 184.3125 C-151.40279689 189.18615315 -151.52739838 193.48096653 -150.75 198.75 C-148.56473658 203.20146251 -145.8105479 205.93885145 -141.75 208.75 C-137.12900885 210.29033038 -133.30230704 210.2885555 -128.6875 208.6875 C-124.28479889 205.78359076 -120.74589935 202.68500496 -119.01171875 197.57421875 C-118.14818269 192.52384116 -118.96245967 188.89963627 -121.5 184.4765625 C-123.72819272 181.39887131 -126.38422233 179.43288884 -129.75 177.75 C-138.12498031 176.81604424 -143.27102274 178.09261365 -149.1875 184.3125 Z M-131.75 278.75 C-138.88389795 287.97717786 -139.60241973 297.48034689 -138.75 308.75 C-136.93842444 317.82003603 -130.77951904 324.85235094 -123.59765625 330.41796875 C-114.29696079 336.50537211 -103.60152967 337.31820097 -92.8359375 335.16796875 C-83.88345754 332.05591619 -76.20058536 324.86775514 -71.64453125 316.625 C-67.88286544 308.74028565 -67.30997811 299.29482655 -69.5078125 290.83203125 C-73.64221668 280.07281408 -80.47116288 272.42795979 -90.890625 267.4765625 C-106.25100091 261.4743988 -121.17449713 267.1627613 -131.75 278.75 Z M269.5 394.625 C262.55594433 404.26952176 261.43575169 413.02721916 262.25 424.75 C264.08585738 433.81764692 270.21770167 440.85019712 277.40234375 446.41796875 C285.52357679 451.73340151 294.17571026 453.54440519 303.75 452.125 C313.1117641 450.14035824 320.31305147 445.22615741 326.25 437.75 C332.20763254 427.78611829 333.82055302 418.12274549 331.671875 406.66796875 C328.83440411 397.65254988 322.72879832 390.46769261 314.5625 385.75 C298.12210197 377.32855318 281.82862802 381.7359798 269.5 394.625 Z M-32.75 430.75 C-33.68779297 431.44029297 -33.68779297 431.44029297 -34.64453125 432.14453125 C-47.34145035 442.08997353 -54.95132001 458.5217647 -57.25390625 474.17578125 C-59.0775221 492.35435187 -54.33971936 508.30824582 -43.8125 523.1875 C-42.81653715 524.39593492 -41.79432893 525.58310924 -40.75 526.75 C-40.12996094 527.47316406 -39.50992188 528.19632813 -38.87109375 528.94140625 C-29.12037913 539.55406249 -13.92801838 547.83856578 0.61499023 548.92700195 C20.36343222 549.42224213 37.06081727 546.93601405 52.5625 533.375 C54.14376417 531.85258547 55.70718752 530.31136864 57.25 528.75 C58.31347656 527.71939453 58.31347656 527.71939453 59.3984375 526.66796875 C69.74543199 515.98400317 75.06709035 501.41807963 76.25 486.75 C76.30285156 486.10160156 76.35570312 485.45320313 76.41015625 484.78515625 C77.10234156 468.62413395 71.048473 453.29630565 61.25 440.75 C60.48429687 439.71939453 60.48429687 439.71939453 59.703125 438.66796875 C48.87127959 425.07453899 32.03873085 418.21107532 15.25 415.75 C-2.30683799 414.1152434 -19.00442314 420.0749883 -32.75 430.75 Z M187.8125 465.5 C185.23418898 470.86288692 184.52878507 475.29968675 186.3125 480.9375 C188.10440288 485.13236942 190.51943658 487.18523765 194.25 489.75 C198.85131537 491.28377179 203.59779492 491.65474832 208.25390625 490.06640625 C212.6018207 487.80323696 215.04907301 485.06720294 217.25 480.75 C218.61174129 475.84773135 218.34265171 472.28760638 216.40625 467.6796875 C213.80677353 463.34137204 210.0086102 460.3362034 205.25 458.75 C197.93349124 458.03269522 192.65392085 460.03788417 187.8125 465.5 Z " fill="#101010" transform="translate(203.75,25.25)"/>
<path d="M0 0 C8.94020599 7.04862566 14.68812493 17.66272971 17.06640625 28.6953125 C17.74559777 35.8268235 17.74559777 35.8268235 15.04040527 39.28598022 C11.32667837 42.29458985 8.53853457 42.40406257 3.95898438 42.34228516 C3.15673935 42.35104675 2.35449432 42.35980835 1.52793884 42.36883545 C-1.11604373 42.39078875 -3.75834507 42.37629216 -6.40234375 42.359375 C-8.24410319 42.36274433 -10.08586046 42.36759792 -11.9276123 42.37387085 C-15.78447677 42.38123663 -19.6407616 42.37054632 -23.49755859 42.34716797 C-28.43765144 42.31868015 -33.37638611 42.33508573 -38.31642914 42.36503029 C-42.11865444 42.38311134 -45.92055853 42.37734158 -49.72279358 42.36439133 C-51.54403342 42.36105954 -53.36530257 42.36513643 -55.18650818 42.37678909 C-57.73384666 42.38951151 -60.27899618 42.37010375 -62.82617188 42.34228516 C-63.57645157 42.35240631 -64.32673126 42.36252747 -65.0997467 42.37295532 C-69.03639487 42.29344027 -70.78078982 41.81630555 -73.90515137 39.34237671 C-75.95005249 36.67383427 -76.62251455 35.26019702 -76.3515625 31.90625 C-73.68152828 17.78251759 -67.43512692 6.93905561 -55.9609375 -1.80859375 C-38.72060163 -13.29072599 -16.76744583 -11.31379173 0 0 Z M-52.93359375 18.6953125 C-55.31947061 21.36274116 -55.31947061 21.36274116 -55.93359375 24.6953125 C-38.44359375 24.6953125 -20.95359375 24.6953125 -2.93359375 24.6953125 C-5.97091562 17.10200782 -10.68434229 12.86705962 -18.0390625 9.421875 C-31.16009377 4.38989187 -43.59059147 8.85603066 -52.93359375 18.6953125 Z " fill="#111111" transform="translate(311.93359375,287.3046875)"/>
<path d="M0 0 C9.23431184 7.15296909 14.0322198 15.93592316 16.25 27.375 C16.4471443 30.52930873 16.16783323 32.27731285 15.25 35.375 C12.85892083 37.87301113 11.45034239 38.35120026 7.98657227 38.76268005 C6.04609009 38.77078453 6.04609009 38.77078453 4.06640625 38.77905273 C3.35048309 38.78591599 2.63455994 38.79277924 1.89694214 38.79985046 C-0.46474146 38.81812158 -2.82576104 38.81428119 -5.1875 38.80859375 C-6.83130103 38.81315505 -8.47510014 38.81846047 -10.11889648 38.82447815 C-13.56209059 38.83340955 -17.00505275 38.83098545 -20.44824219 38.82104492 C-24.86030213 38.80954829 -29.27156256 38.82977658 -33.68351746 38.85896206 C-37.07732221 38.87730798 -40.47093472 38.87703498 -43.86477661 38.87132454 C-45.49147667 38.87117116 -47.11818963 38.87722907 -48.74484253 38.88961601 C-51.01920768 38.90449665 -53.29208756 38.89387299 -55.56640625 38.87670898 C-57.50688843 38.87645973 -57.50688843 38.87645973 -59.48657227 38.87620544 C-63.28514997 38.29281032 -64.46040053 37.39835894 -66.75 34.375 C-68.79253793 26.79057607 -64.95920465 18.47967609 -61.4296875 11.921875 C-55.23240899 1.9655915 -46.95605881 -3.53002948 -35.92578125 -7.23828125 C-22.75060514 -9.58000914 -11.08776674 -7.42189264 0 0 Z M-44.875 17.5625 C-46.93490007 20.08898271 -46.93490007 20.08898271 -46.75 22.375 C-32.56 22.375 -18.37 22.375 -3.75 22.375 C-6.51619417 17.71259142 -6.51619417 17.71259142 -10.125 14.1875 C-10.68960938 13.69894531 -11.25421875 13.21039063 -11.8359375 12.70703125 C-22.11387773 5.55442387 -36.82807389 8.41417897 -44.875 17.5625 Z " fill="#0B0B0B" transform="translate(178.75,99.625)"/>
<path d="M0 0 C9.17420537 6.74937331 16.18769767 15.09497355 18.5078125 26.45703125 C18.67028329 28.11902755 18.77196623 29.78781254 18.8203125 31.45703125 C18.87638672 32.72546875 18.87638672 32.72546875 18.93359375 34.01953125 C18.34531611 37.38728584 17.19637482 38.37042834 14.5078125 40.45703125 C11.24438477 40.96496582 11.24438477 40.96496582 7.32421875 40.97460938 C6.25033401 40.98512329 6.25033401 40.98512329 5.15475464 40.99584961 C2.79287707 41.01342673 0.43220183 41.001809 -1.9296875 40.98828125 C-3.57348866 40.99097627 -5.21728827 40.99485878 -6.86108398 40.99987793 C-10.30435378 41.00577255 -13.74720821 40.99721153 -17.19042969 40.97851562 C-21.60252443 40.95572567 -26.01364592 40.968849 -30.42570496 40.99280548 C-33.81953251 41.00726468 -37.21312959 41.00265701 -40.60696411 40.99229431 C-42.23365392 40.98962734 -43.86036471 40.99289578 -45.48703003 41.00221252 C-47.76144778 41.01238067 -50.03429304 40.99687602 -52.30859375 40.97460938 C-53.60224854 40.971427 -54.89590332 40.96824463 -56.22875977 40.96496582 C-60.03457027 40.37261236 -61.19859038 39.48830541 -63.4921875 36.45703125 C-65.72808636 29.89910781 -63.02571509 22.72793905 -60.19921875 16.69921875 C-54.56134367 6.81404368 -46.77425687 -0.47247894 -35.9921875 -4.35546875 C-24.02855571 -7.55804095 -10.61582362 -6.57249268 0 0 Z M-43.2421875 21.75 C-44.59065471 23.23887326 -44.59065471 23.23887326 -44.4921875 24.45703125 C-29.9721875 24.45703125 -15.4521875 24.45703125 -0.4921875 24.45703125 C-4.88729004 17.86437744 -8.30829381 14.56776033 -15.4921875 11.45703125 C-27.96642386 9.85072007 -35.3314385 12.23238011 -43.2421875 21.75 Z " fill="#0C0C0C" transform="translate(505.4921875,243.54296875)"/>
<path d="M0 0 C9.46536288 7.82864388 16.25567801 16.92112224 17.75 29.3125 C17.61512436 32.88670436 17.28701493 34.5982628 15.14428711 37.44812012 C11.86298873 40.0031966 9.70001185 39.81990951 5.56640625 39.83007812 C4.49252151 39.84059204 4.49252151 39.84059204 3.39694214 39.85131836 C1.03506457 39.86889548 -1.32561067 39.85727775 -3.6875 39.84375 C-5.33130116 39.84644502 -6.97510077 39.85032753 -8.61889648 39.85534668 C-12.06216628 39.8612413 -15.50502071 39.85268028 -18.94824219 39.83398438 C-23.36033693 39.81119442 -27.77145842 39.82431775 -32.18351746 39.84827423 C-35.57734501 39.86273343 -38.97094209 39.85812576 -42.36477661 39.84776306 C-43.99146642 39.84509609 -45.61817721 39.84836453 -47.24484253 39.85768127 C-49.51926028 39.86784942 -51.79210554 39.85234477 -54.06640625 39.83007812 C-55.36006104 39.82689575 -56.65371582 39.82371338 -57.98657227 39.82043457 C-61.78457826 39.22929583 -62.96753512 38.34470659 -65.25 35.3125 C-66.98521612 28.15473349 -64.42277029 20.69536729 -61.25 14.3125 C-54.59045037 3.82865455 -46.15310532 -2.40722612 -34.38671875 -6.3046875 C-22.54237376 -8.42670909 -10.00043872 -6.95766958 0 0 Z M-41.25 16.3125 C-44.63477697 19.40087854 -44.63477697 19.40087854 -46.25 23.3125 C-31.73 23.3125 -17.21 23.3125 -2.25 23.3125 C-5.87226419 17.27539302 -10.20315332 12.2031174 -17.25 10.3125 C-26.60270306 8.47262399 -33.7201825 10.40424235 -41.25 16.3125 Z " fill="#0B0B0B" transform="translate(237.25,513.6875)"/>
<path d="M0 0 C6.92397481 7.88563797 8.73683787 14.67911655 8.5625 25.01953125 C7.84603534 33.14244938 4.43922806 40.19485088 -1.75 45.5625 C-9.31802618 50.7551603 -17.51767031 53.74951382 -26.75 52.5625 C-36.9409182 49.90711991 -43.97655326 45.8230775 -49.52734375 36.80859375 C-53.51013751 29.49195984 -54.03322472 20.90286633 -52.09765625 12.84765625 C-49.10330605 4.50717007 -43.63283481 -2.09387209 -35.8984375 -6.46484375 C-23.10767852 -12.25556918 -10.15848563 -9.00411226 0 0 Z M-33.0625 13.125 C-35.91877453 17.25072987 -36.27493344 20.6090372 -35.75 25.5625 C-33.71911189 30.2656093 -30.31421761 33.28039119 -25.75 35.5625 C-19.64932061 36.16060582 -16.61087223 35.02119755 -11.75 31.5625 C-8.36874855 27.85403067 -8.12085684 23.9200458 -8.265625 19.0703125 C-9.0906058 14.79904093 -11.43859625 12.25399642 -14.75 9.5625 C-21.59709219 5.72144828 -27.86473789 7.36531766 -33.0625 13.125 Z " fill="#111111" transform="translate(304.75,222.4375)"/>
<path d="M0 0 C1.12855637 0.71277244 2.23681107 1.45969793 3.3125 2.25 C4.199375 2.8275 5.08625 3.405 6 4 C12.32451298 10.15358019 14.83440336 16.99093701 15.625 25.6875 C14.86527458 34.34836978 11.4658053 41.49988963 5.0625 47.4375 C-1.36305193 52.6132617 -7.53377658 53.84119731 -15.73046875 53.59375 C-23.82994325 52.65219946 -30.32055545 48.2604922 -35.6875 42.25 C-39.94047109 35.67387418 -41.53902872 29.03202636 -40.6875 21.25 C-38.17966204 11.40946191 -34.27560455 5.47319904 -25.5546875 0.23046875 C-18.81507507 -3.30853276 -6.82118428 -3.34500383 0 0 Z M-19.6875 17.25 C-22.34719807 19.90969807 -23.55324038 21.46122473 -24.1875 25.1875 C-23.55641522 29.05289428 -22.11115412 31.20312053 -19.6875 34.25 C-15.9953813 36.71141247 -12.97395195 36.93650207 -8.6875 36.25 C-5.2873301 34.18033136 -2.76937304 32.14474294 -1.6875 28.25 C-1.7641297 23.42232863 -1.97499143 21.23493832 -4.8125 17.3125 C-10.07274905 13.53884307 -14.5963256 13.12202076 -19.6875 17.25 Z " fill="#101010" transform="translate(495.6875,183.75)"/>
<path d="M0 0 C5.30782796 5.64123424 8.34090294 12.79137613 8.6171875 20.52734375 C8.16615383 29.27466344 5.39976317 35.15387992 -0.62890625 41.515625 C-6.94283936 47.13176158 -13.89140293 48.80556402 -22.16796875 48.671875 C-30.35140172 48.03310925 -36.4697193 44.66640275 -41.8203125 38.46484375 C-46.96373798 30.85818969 -48.76758395 22.96097242 -47.2578125 13.90234375 C-45.08133627 5.79783358 -40.30920387 -0.08218653 -33.171875 -4.37890625 C-22.02931247 -9.85764132 -9.47221207 -7.98836769 0 0 Z M-28.5703125 13.71484375 C-30.60295719 16.56054631 -30.7033635 19.01484816 -30.8203125 22.46484375 C-29.58680089 26.02832172 -28.46478027 27.92778728 -25.5703125 30.33984375 C-21.97958737 31.80877676 -19.67259374 32.0055148 -15.8203125 31.46484375 C-12.24887451 29.41457379 -10.43028702 28.22987641 -9.0859375 24.33984375 C-8.37778726 20.1475943 -8.60024662 17.93036772 -10.4453125 14.02734375 C-12.9133255 11.36448762 -14.3325146 10.33679322 -17.8203125 9.46484375 C-22.71330226 9.46484375 -24.70757059 10.95574239 -28.5703125 13.71484375 Z " fill="#111111" transform="translate(232.8203125,457.53515625)"/>
<path d="M0 0 C6.52846337 4.88153704 10.68693716 10.52347079 12.15234375 18.609375 C13.17325819 27.31267059 11.76837937 34.78521688 6.45703125 41.87109375 C1.12336819 47.71221058 -4.72965527 50.90647358 -12.578125 51.984375 C-20.88410274 52.35925693 -28.04114808 50.01653672 -34.66015625 44.984375 C-40.8759468 39.04844232 -43.15469482 32.62558522 -43.47265625 24.109375 C-43.12572722 15.05270126 -40.59718274 8.87109142 -33.97265625 2.671875 C-24.15135384 -5.02541191 -11.07472229 -6.56006844 0 0 Z M-22.84765625 15.609375 C-25.85840163 18.62012038 -26.76438743 21.36266508 -26.84765625 25.609375 C-25.59397528 28.98304457 -23.89302834 31.78028679 -21.03515625 34.046875 C-17.73941564 34.89435116 -15.24469598 35.01936255 -11.84765625 34.609375 C-8.87526384 32.82461259 -6.42161598 30.75729445 -4.84765625 27.609375 C-4.44429897 23.41445932 -4.60567558 21.0843741 -6.53515625 17.296875 C-8.94797038 14.49279372 -10.30896296 13.51673225 -13.84765625 12.609375 C-17.63139634 12.609375 -19.59628874 13.71274395 -22.84765625 15.609375 Z " fill="#101010" transform="translate(168.84765625,39.390625)"/>
<path d="M0 0 C0.66 0.33 1.32 0.66 2 1 C-3.61 6.61 -9.22 12.22 -15 18 C-15 13.78193333 -13.14807199 12.61332709 -10.3125 9.5625 C-9.44238281 8.61503906 -8.57226562 7.66757813 -7.67578125 6.69140625 C-5.23784139 4.23923024 -2.74711696 2.0937486 0 0 Z " fill="#6B6B6B" transform="translate(432,172)"/>
<path d="M0 0 C0.66 0.33 1.32 0.66 2 1 C-2.62 5.62 -7.24 10.24 -12 15 C-12.66 14.67 -13.32 14.34 -14 14 C-12.60919892 12.41224451 -11.21211596 10.82999061 -9.8125 9.25 C-8.64654297 7.92742187 -8.64654297 7.92742187 -7.45703125 6.578125 C-5.11544754 4.12113732 -2.69841735 2.05137234 0 0 Z " fill="#666666" transform="translate(162,441)"/>
<path d="M0 0 C0.66 0.33 1.32 0.66 2 1 C-2.29 5.29 -6.58 9.58 -11 14 C-11.66 13.67 -12.32 13.34 -13 13 C-11.58791833 11.39179588 -10.17013964 9.78859292 -8.75 8.1875 C-7.96109375 7.29417969 -7.1721875 6.40085937 -6.359375 5.48046875 C-4.34120555 3.35871775 -2.40083295 1.65745577 0 0 Z " fill="#696969" transform="translate(362,26)"/>
<path d="M0 0 C0.66 0.33 1.32 0.66 2 1 C-2.29 5.29 -6.58 9.58 -11 14 C-11 10.30159372 -10.17133056 9.68584567 -7.75 7 C-7.14671875 6.319375 -6.5434375 5.63875 -5.921875 4.9375 C-4.06233388 3.06284066 -2.15205789 1.52358081 0 0 Z " fill="#646464" transform="translate(190,513)"/>
<path d="M0 0 C0.66 0.33 1.32 0.66 2 1 C-2.29 5.29 -6.58 9.58 -11 14 C-11 10.30159372 -10.17133056 9.68584567 -7.75 7 C-7.14671875 6.319375 -6.5434375 5.63875 -5.921875 4.9375 C-4.06233388 3.06284066 -2.15205789 1.52358081 0 0 Z " fill="#636363" transform="translate(130,98)"/>
<path d="M0 0 C0.66 0.33 1.32 0.66 2 1 C-1.96 4.96 -5.92 8.92 -10 13 C-10 9.28115772 -9.1259934 8.63852271 -6.6875 5.9375 C-5.76517578 4.89916016 -5.76517578 4.89916016 -4.82421875 3.83984375 C-3 2 -3 2 0 0 Z " fill="#606060" transform="translate(487,13)"/>
<path d="M0 0 C0.66 0.33 1.32 0.66 2 1 C-1.3 4.3 -4.6 7.6 -8 11 C-8 7.0234755 -6.61988497 5.9109833 -4 3 C-1.75 1.1875 -1.75 1.1875 0 0 Z " fill="#6F6F6F" transform="translate(468,185)"/>
<path d="M0 0 C0.66 0.33 1.32 0.66 2 1 C-0.97 3.97 -3.94 6.94 -7 10 C-7.66 9.67 -8.32 9.34 -9 9 C-6.21000549 5.51250686 -3.74764169 2.49842779 0 0 Z " fill="#707070" transform="translate(387,472)"/>
<path d="M0 0 C0.66 0.33 1.32 0.66 2 1 C-0.64 3.64 -3.28 6.28 -6 9 C-6.66 8.67 -7.32 8.34 -8 8 C-3.375 2.25 -3.375 2.25 0 0 Z " fill="#626262" transform="translate(50,191)"/>
</svg>
